<svg xmlns="http://www.w3.org/2000/svg" xmlns:xlink="http://www.w3.org/1999/xlink" width="586" height="680" viewBox="0 0 586 680"><defs><style>.a{fill:#f7f9fa;stroke:#d3dce0;stroke-miterlimit:10;stroke-width:1.2px;}.b{fill:#f14235;}.c{fill:#f5a623;}.d{fill:#7bbb44;}.e{fill:#e1e8ee;}.f{opacity:0.2;}.g{fill:#6587a8;}.h{fill:#f6f7f9;}.i{fill:url(#c);}.j{fill:#272440;}.k{fill:#6587a8}.l{fill:#666666;}.m{fill:#666666;}.n{fill:#6587a8;}.o{fill:#e29900;}.p{fill:#fff;}.q{fill:#9c5740;}.r{fill:#804231;}.s{fill:#5ca1d3;}.t{fill:#74cdfc;}.u{fill:#666666;}.v{fill:#4d4b67;}.w{stroke:none;}.x{fill:none;}.y{filter:url(#a);}</style><filter id="a" x="58" y="0" width="528" height="680" filterUnits="userSpaceOnUse"><feOffset dy="43" input="SourceAlpha"/><feGaussianBlur stdDeviation="26" result="b"/><feFlood flood-opacity="0.2"/><feComposite operator="in" in2="b"/><feComposite in="SourceGraphic"/></filter><linearGradient id="c" x1="-0.03" y1="1" x2="1.15" y2="-0.12" gradientUnits="objectBoundingBox"><stop offset="0" stop-color="#6587a8"/><stop offset="0.315" stop-color="#6587a8"/><stop offset="1" stop-color="#ffb417"/></linearGradient></defs><g transform="translate(-732 -187)"><g transform="translate(868 222)"><g class="y" transform="matrix(1, 0, 0, 1, -136, -35)"><g class="a" transform="translate(136 35)"><rect class="w" width="372" height="524" rx="14.4"/><rect class="x" x="0.6" y="0.6" width="370.8" height="522.8" rx="13.8"/></g></g></g><g transform="translate(899 260)"><circle class="b" cx="5" cy="5" r="5"/><circle class="c" cx="5" cy="5" r="5" transform="translate(17)"/><circle class="d" cx="5" cy="5" r="5" transform="translate(33)"/><rect class="e" width="252" height="9" rx="4.5" transform="translate(58)"/></g><g transform="translate(14479.66 -6598.259)"><g class="f" transform="translate(-13580.66 6904.259)"><rect class="g" width="309.66" height="109.651" rx="6" transform="translate(0 0)"/></g><rect class="h" width="177" height="9" rx="2" transform="translate(-13494 6940)"/><rect class="h" width="92" height="10" rx="2" transform="translate(-13494 6963)"/><rect class="i" width="31" height="9" rx="2" transform="translate(-13332 6991)"/><circle class="h" cx="18" cy="18" r="18" transform="translate(-13562 6938)"/><g class="f" transform="translate(-13580.66 7045.926)"><rect class="g" width="309.66" height="109.651" rx="6" transform="translate(0 0)"/></g><rect class="h" width="177" height="10" rx="2" transform="translate(-13494 7084)"/><rect class="h" width="92" height="9" rx="2" transform="translate(-13494 7105)"/><rect class="i" width="31" height="9" rx="2" transform="translate(-13332 7134)"/><ellipse class="h" cx="18" cy="17.5" rx="18" ry="17.5" transform="translate(-13562 7079)"/><g class="f" transform="translate(-13580.66 7187.592)"><rect class="g" width="309.66" height="109.651" rx="6" transform="translate(0 0)"/></g><rect class="h" width="177" height="9" rx="2" transform="translate(-13494 7226)"/><rect class="h" width="92" height="10" rx="2" transform="translate(-13494 7246)"/><rect class="i" width="31" height="10" rx="2" transform="translate(-13332 7275)"/><circle class="h" cx="18" cy="18" r="18" transform="translate(-13562 7223)"/></g><g transform="translate(732 328.22)"><g transform="translate(0 -0.006)"><path class="j" d="M42.519,56.768a11.778,11.778,0,0,0-1,4.725,12.107,12.107,0,0,0,12.207,12,7.822,7.822,0,0,0,1.136-.055A12.256,12.256,0,0,0,76.577,78.3,12.3,12.3,0,0,0,97.012,76.86a12.351,12.351,0,0,0,4.351.8,12.1,12.1,0,0,0,12.2-12,11.823,11.823,0,0,0-1-4.755A12.032,12.032,0,0,0,121,49.486a11.892,11.892,0,0,0-4.256-9.116,11.823,11.823,0,0,0,2.6-7.367,12.072,12.072,0,0,0-10.632-11.9,12.16,12.16,0,0,0,.13-1.66A12.107,12.107,0,0,0,96.614,7.439a12.311,12.311,0,0,0-5.8,1.44,12.256,12.256,0,0,0-22.8-1.994,12.286,12.286,0,0,0-7.716-2.7A11.962,11.962,0,0,0,48.176,17.547H48.1a12.107,12.107,0,0,0-12.207,12,11.813,11.813,0,0,0,2.318,7.018,11.863,11.863,0,0,0-3.987,8.842,12.017,12.017,0,0,0,8.3,11.359ZM58.643,45.409a11.823,11.823,0,0,0-2.313-7.033,11.873,11.873,0,0,0,3.987-8.842,11.125,11.125,0,0,0-.085-1.356h.085a12.207,12.207,0,0,0,11.03-6.893,12.356,12.356,0,0,0,13.517,1.261,12.127,12.127,0,0,0,10.2,8.772,12.168,12.168,0,0,0-.13,1.665A11.893,11.893,0,0,0,99.215,42.1a11.788,11.788,0,0,0-1.58,12.117A12.182,12.182,0,0,0,90.7,59.869a12.261,12.261,0,0,0-14.1,3.987,12.242,12.242,0,0,0-9.744-4.8,7.174,7.174,0,0,0-1.136.06A12.077,12.077,0,0,0,57.681,50.1,11.773,11.773,0,0,0,58.643,45.409Z" transform="translate(-17.164 0.006)"/><path class="k" d="M50.968,866.67l-8.6,14.509L45.176,900.8l23.74,1.426s-1.685-13.283-11.962-15.736l1.8-8.433Z" transform="translate(-21.251 -434.691)"/><path class="k" d="M111.05,900.61l1.032,18.138,40.4,2.228s-1.675-13.562-24.423-14l-2.4-5.872Z" transform="translate(-55.699 -451.714)"/><path class="l" d="M133.223,442.21l15.556,91.039a22.868,22.868,0,0,1-2.318,14.524A1359.04,1359.04,0,0,1,66.414,665.328a14.365,14.365,0,0,1-6.794-11.554L97.571,539.559l-13.8-69.337,10.248-24.7Z" transform="translate(-29.904 -221.795)"/><path class="m" d="M102.538,442.21s-7.511,194.917-6.45,230.918a16.07,16.07,0,0,1-15.4-2.368s-17.266-93.032-4.042-110.368c0,0-38.429-66.376-22.609-118.183Z" transform="translate(-25.186 -221.795)"/><path class="l" d="M108.783,678.4c-.967-5.069-1.789-10.168-2.532-15.272-.379-2.552-.7-5.114-1.052-7.671l-.917-7.681q-1.71-15.377-2.268-30.848l-.145-3.863c-.035-1.291-.03-2.577-.05-3.868l-.035-3.863c0-1.291-.035-2.577,0-3.863l.174-7.726c.115-2.572.294-5.144.439-7.716s.429-5.129.683-7.686l.4-3.843c.055-.638.16-1.276.259-1.909l.3-1.909.593-3.808.3-1.909a5.383,5.383,0,0,1,.449-1.71c.229-.5.633-1.057.957-1.6l1-1.655.5-.827a2.358,2.358,0,0,0,.384-1.241,2.323,2.323,0,0,0-1.391-2.148,2.547,2.547,0,0,0-.658-.189l-.5-.06-1-.125-1.954-.254-1.949-.249-.244-.03h-.08a.175.175,0,0,1-.075-.06.2.2,0,0,1,0-.2c-.05,0,.294-.3.5-.5l.7-.678,1.4-1.366.7-.678.174-.169.09-.085.115-.125a2.4,2.4,0,0,0,.389-.578,2.373,2.373,0,0,0,.209-1.351,2.723,2.723,0,0,0-.07-.339l-.055-.164-.045-.12-.164-.449c-1.769-4.835-3.354-9.744-4.82-14.684s-2.8-9.914-3.987-14.918-2.288-10.043-3.18-15.107a174.918,174.918,0,0,1-2.991-30.654,108.559,108.559,0,0,1,1-15.372A76.022,76.022,0,0,1,93.87,442.27l-.16-.06a72.921,72.921,0,0,0-4.142,14.953,108.039,108.039,0,0,0-1.4,15.451,141.707,141.707,0,0,0,.548,15.531c.444,5.164,1.112,10.308,1.964,15.416s1.929,10.183,3.13,15.222,2.607,10.033,4.107,14.993,3.17,9.869,4.984,14.724l.174.459.065.169.03.135a.962.962,0,0,1-.08.538.868.868,0,0,1-.15.229l-.05.055-.09.085-.169.174-.693.688-1.386,1.376-.688.688-.349.344a1.9,1.9,0,0,0-.444.588,1.57,1.57,0,0,0,.2,1.625,1.6,1.6,0,0,0,.7.5,1.782,1.782,0,0,0,.4.09l.244.03,1.954.234,1.954.229,1,.115.5.06a1.09,1.09,0,0,1,.284.075,1.022,1.022,0,0,1,.608.927.947.947,0,0,1-.045.289,1.205,1.205,0,0,1-.145.294l-.5.832-1,1.66a18.127,18.127,0,0,0-1,1.745,6.569,6.569,0,0,0-.533,2.019l-.284,1.924-.563,3.843-.284,1.919c-.095.643-.2,1.281-.249,1.929l-.369,3.863c-.234,2.577-.538,5.149-.623,7.736s-.284,5.164-.379,7.746l-.11,7.751c-.035,1.3,0,2.587,0,3.878l.07,3.873c.03,1.291.035,2.587.08,3.878l.179,3.868q.7,15.486,2.6,30.873l1,7.681c.379,2.557.728,5.114,1.136,7.666.8,5.1,1.68,10.188,2.7,15.252Z" transform="translate(-44.211 -221.795)"/><path class="n" d="M193.533,229.5l46.957-14.455,1.55,10.123-52.365,27.17a5.039,5.039,0,0,1-6.33-1.251,19.6,19.6,0,0,1-1.74-2.422l-4.371-8.558-4.416-8.643-11.464-22.429L153.32,171.49S161.569,160.032,193.533,229.5Z" transform="translate(-76.9 -85.658)"/><path class="n" d="M185.377,252.91a6.779,6.779,0,0,1-5.278-2.532,20.478,20.478,0,0,1-1.929-2.716l-20.361-39.875-.05-.224-8.2-38.3.454-.628a4.017,4.017,0,0,1,3.688-1.4c10.248,1,26.681,31.939,38.908,58.316l47.426-14.594,2.049,13.363L188.6,252.082A6.674,6.674,0,0,1,185.377,252.91Zm-24.254-46.284,20.152,39.446a17.469,17.469,0,0,0,1.545,2.118,3.27,3.27,0,0,0,4.132.817l51.3-26.586-1.057-6.893-46.484,14.3-.638-1.386c-9.794-21.3-18.327-37.073-25.345-46.9-6.136-8.578-9.545-10.427-11.03-10.766l-.244-.045Z" transform="translate(-75.015 -83.854)"/><path class="n" d="M51.939,309.747c58.88,14.808,81.324-9.017,81.324-9.017l-10.422-41.549s-7.521-16.383,2.4-42.367-19.708-50.082-19.708-50.082L87.093,164.24,62.8,167.8,52,213.655l4.112,12.067,4.277,12.55L64,248.854C49.392,280.853,51.939,309.747,51.939,309.747Z" transform="translate(-25.965 -82.375)"/><path class="o" d="M60.48,262.627l4.277,12.551c.169-.264.344-.558.528-.882,5.981-10.671,1.121-36.445,1.121-36.445C66.785,251.063,60.48,262.627,60.48,262.627Z" transform="translate(-30.335 -119.295)"/><path class="n" d="M0,254.544s5.632,11.045,30.085,16.6h0a122.121,122.121,0,0,0,16.683,2.522q3.155.269,6.589.424l1.321-10.258s-22.35-9.361-33.006-18.746a243.829,243.829,0,0,0,15.82-47.351l44.495-33.106s-34.357-13.807-56.956,7.162S0,254.544,0,254.544Z" transform="translate(0 -80.334)"/><path class="o" d="M64.115,344.751a53.217,53.217,0,0,0,37.786,2.024l3.08-26.8,2.642-21.931.459-3.8s-24.692-13.433-43.01-6.41a207.385,207.385,0,0,1-.194,28.087c1.236.733,2.492,1.44,3.723,2.128,9.221,5.089,18.078,8.8,18.078,8.8L85.358,337.1C78.216,336.791,61.1,343.4,64.115,344.751Z" transform="translate(-31.981 -143.347)"/><path class="p" d="M62,353.7s18.028,12.152,42.471,4.486l3.08-26.8,3.1-25.719s-1.455-.8-3.928-1.894c-7.7-3.434-25.216-9.839-39.082-4.521a207.457,207.457,0,0,1,.045,24.513c9.221,5.089,18.078,8.8,18.078,8.8l-1.321,10.258A139.358,139.358,0,0,1,65.693,340.8a73.362,73.362,0,0,1-2.492,9.665A30.617,30.617,0,0,1,62,353.7Z" transform="translate(-31.097 -149.073)"/><path class="p" d="M89,164.5a123.352,123.352,0,0,0,27.618,35.473,2.173,2.173,0,0,0,3.579-1.216c2.378-13.856-.773-27.414-2.731-33.983a61.727,61.727,0,0,0-9.789-.738A52.4,52.4,0,0,0,89,164.5Z" transform="translate(-44.64 -81.971)"/><path class="q" d="M99.52,365.225l5.408,6.35a14.061,14.061,0,0,0,7.89,4.66l5.752,1.186a18.441,18.441,0,0,0,7.6,0l4.037-.852a2.532,2.532,0,0,0,1.874-1.61l2.891-8a1.889,1.889,0,0,0,0-1.261.733.733,0,0,0-.04-.14l-1.779-4.3a5.737,5.737,0,0,0-2.946-3.03l-2.153-1a.557.557,0,0,0-.179-.045c-.224,0-1.256-.13-1.256.125,0,1.166-.169,2.427-1.356,2.382l-4.316-.145-1.5-.822a.563.563,0,0,1,.085-1.032l.867-.294a4.227,4.227,0,0,0,2.991-3.648.588.588,0,0,0-.922-.543c-2.108,1.47-7.172,2.632-7.172,2.632l-12.261,3.823-1.844,2.9Z" transform="translate(-49.916 -177.104)"/><path class="r" d="M99.52,374.752l5.408,6.35a14.061,14.061,0,0,0,7.89,4.66l5.752,1.186a18.441,18.441,0,0,0,7.6,0l4.037-.852a2.532,2.532,0,0,0,1.874-1.61l2.891-8a1.889,1.889,0,0,0,0-1.261c-4.795,2.886-19.19,9.69-33.046-2.492l-.738-.633Z" transform="translate(-49.916 -186.631)"/><path class="s" d="M60.37,377.438a122.112,122.112,0,0,0,16.683,2.522c.653-2.263,1.994-7.87,1.994-7.87S72.7,379.6,60.37,377.438Z" transform="translate(-30.28 -186.626)"/><path class="t" d="M98.6,361.887l-1.176-.728a1.426,1.426,0,0,0-1.859.329L85.792,374a1.376,1.376,0,0,0,1,2.213l9.032.887a1.4,1.4,0,0,0,1.53-1.166l1.919-12.675a1.376,1.376,0,0,0-.668-1.371Z" transform="translate(-42.887 -181.038)"/><path class="o" d="M319.673,263.915s-4.486,8.269-7.013,12.73l9.316-4.83.414-8.055Z" transform="translate(-156.82 -132.291)"/><path class="u" d="M309.645,294.39l.035-.03C309.635,294.385,309.635,294.39,309.645,294.39Z" transform="translate(-155.305 -147.639)"/><path class="n" d="M332.178,249.156l4.65,12.531a1.281,1.281,0,0,1-.862,1.67l-8.329,2.358a1.3,1.3,0,0,1-1.655-1.126L324.876,251.2a1.281,1.281,0,0,1,.9-1.326l4.785-1.5A1.306,1.306,0,0,1,332.178,249.156Z" transform="translate(-162.945 -124.545)"/><path class="o" d="M184.311,236.366c3.16,8.817,1.66,13.233.957,16.947l4.416,8.643c1.366-6.121,2.936-22.888-11.544-47.645a149.232,149.232,0,0,0,6.171,22.056Z" transform="translate(-89.349 -107.488)"/><path class="n" d="M133.159,437.83a31.776,31.776,0,0,1-3.778,3.863,43.528,43.528,0,0,1-4.267,3.325,49.512,49.512,0,0,1-4.606,2.821,52.337,52.337,0,0,1-4.885,2.278,54.26,54.26,0,0,1-10.293,3.055,57.976,57.976,0,0,1-10.661,1.116c-1.784.065-3.579-.07-5.363-.13l-2.672-.264c-.444-.05-.887-.085-1.331-.145l-1.326-.2-2.657-.374c-.882-.15-1.759-.319-2.642-.459l-1.326-.2c-.444-.07-.877-.184-1.321-.254l-2.647-.5c-.887-.13-1.759-.364-2.642-.543l-2.652-.538c-1.759-.4-3.489-.852-5.293-1.236-1.749-.5-3.534-.9-5.313-1.341s-3.549-.952-5.378-1.341l-.179.4c1.565,1,3.185,1.9,4.81,2.811s3.339,1.635,5.039,2.4,3.489,1.366,5.214,2.044c1.784.563,3.564,1.161,5.383,1.635a66.664,66.664,0,0,0,22.469,1.754A61.622,61.622,0,0,0,106,456.023a57.083,57.083,0,0,0,10.557-3.913,54.451,54.451,0,0,0,4.88-2.751,50.473,50.473,0,0,0,4.511-3.27,37.686,37.686,0,0,0,7.581-8.02Z" transform="translate(-26.046 -219.599)"/><path class="q" d="M98.981,149.44c.08,2.816.5,5.981,2.687,8.109,4.705,4.67,10.023,3.644,14.554.8a17.712,17.712,0,0,0,4.825-5.981c.553-1.71-.075-3.489-.354-5.194a36.081,36.081,0,0,1-.379-4.865c0-.683-.025-1.376-.025-2.064a32.667,32.667,0,0,1,.917-8.329c-19.833.648-19.823-2.083-20.795,2.492-.169.812-.314,1.63-.444,2.452q-.269,1.65-.5,3.335a59.459,59.459,0,0,0-.488,9.241Z" transform="translate(-49.636 -66.05)"/><path class="r" d="M100,142.294a5.772,5.772,0,0,0,.633.718c3.858,3.753,9.969,3.594,14.509,2.378a13.572,13.572,0,0,0,5.657-3.04,50.037,50.037,0,0,1,.917-10.342c-19.833.807-19.823-2.587-20.795,3.1-.169,1-.314,2.029-.444,3.045C100.3,139.523,100.14,140.909,100,142.294Z" transform="translate(-50.157 -66.066)"/><path class="q" d="M78.758,68c.239,5.558,1.116,11.19,3.987,15.646a37.384,37.384,0,0,0,3.384,4.486c4.984,5.672,12.117,10.038,19.319,6.619A31.227,31.227,0,0,0,116.8,85.662a21.193,21.193,0,0,0,4.436-10.916,68.284,68.284,0,0,0,.045-9.894c-.214-3.838-.623-7.656-.892-11.419a110.488,110.488,0,0,0-12.959-7.476C95.466,40.28,88.847,41.431,83.5,45.762c-2.677,2.173-3.883,5.358-4.426,8.638a32.4,32.4,0,0,0-.374,4.84C78.674,61.986,78.619,64.977,78.758,68Z" transform="translate(-39.457 -21.112)"/><path class="r" d="M78.758,71.63A8.812,8.812,0,0,1,84.042,68.8c4.2-.568,7.4,2.881,11.265,3.564a21.716,21.716,0,0,0,10.218-.543C109.512,70.5,112.567,68.2,116.879,68a25.615,25.615,0,0,1,4.376.5c-.214-3.838-.623-7.656-.892-11.419A110.487,110.487,0,0,0,107.4,49.6,52.241,52.241,0,0,0,97.18,49.56c-5.288.469-10.7,1.1-14.928,4.591a13.737,13.737,0,0,0-3.175,3.888,32.4,32.4,0,0,0-.374,4.84C78.674,65.614,78.619,68.6,78.758,71.63Z" transform="translate(-39.457 -24.74)"/><path class="j" d="M116.07,53.8c-1.107-1.077-1.565-1.565-3.185-1.4-2.6.264-5.558-1.889-7.706-3.1a4.242,4.242,0,0,1-1.46-1.136c-.917-1.276-.319-3.045-1-4.486a6.1,6.1,0,0,0-3.3-3.135,2.991,2.991,0,0,0-2.2-.055c-2.054.862-1.321,3.315-2.7,4.566-1.695,1.54-3.07-.4-4.137-1.63-1.361-1.57-4.037-1.5-4.027,1.032a3.544,3.544,0,0,1,0,1.171,1.416,1.416,0,0,1-.847.807c-1.4.563-2.642-.324-3.878-.867-3.155-1.376-3.215,1.171-2.741,3.2.583,2.492-.533,3.634-3.1,3.987a3.128,3.128,0,0,0-2.173.892c-.673.882-.568,1.994-1.73,2.572a3.4,3.4,0,0,1-1.774.264A7.111,7.111,0,0,1,63.316,48.9c.369-3.584,2.836-6.819,5.114-9.47,4.127-4.845,8.742-7.282,14.828-9.161,6.48-1.994,13.268-.025,19.274,2.492,4.531,1.914,7.975,5.587,11.648,8.757A12.067,12.067,0,0,1,117.515,46c.658,1.4,1.555,2.213,1.351,3.893Z" transform="translate(-31.74 -14.767)"/><path class="p" d="M121.687,118.55H104.7s1.421,9.515,8.648,8.972S121.687,118.55,121.687,118.55Z" transform="translate(-52.514 -59.458)"/><path class="j" d="M178.68,40.443a1.74,1.74,0,0,0,.254-.055l.189-.06c.125-.04.239-.08.349-.125.224-.085.434-.184.638-.284a9.036,9.036,0,0,0,1.146-.683A8.5,8.5,0,0,0,183.1,37.5a4.941,4.941,0,0,0,.354-.5,4.1,4.1,0,0,0,.314-.5l.279-.5c.08-.179.15-.359.224-.533a8.654,8.654,0,0,0,.349-1.072c.09-.354.14-.723.209-1.067-.234.279-.449.563-.688.817a7.258,7.258,0,0,1-.758.713l-.394.314-.419.269a3.549,3.549,0,0,1-.424.239c-.15.07-.279.15-.434.2a5.8,5.8,0,0,1-1.754.449,5.453,5.453,0,0,1-.852,0,3.28,3.28,0,0,1-.394-.045l-.174-.035-.07-.025s-.055,0,0-.03Z" transform="translate(-89.5 -16.714)"/><path class="j" d="M61.847,30.157h-.08a.5.5,0,0,1-.115,0l-.239-.05c-.16-.035-.324-.08-.5-.13q-.5-.14-1-.329a14.519,14.519,0,0,1-1.964-.907A12.037,12.037,0,0,1,56.11,27.5a11.853,11.853,0,0,1-1.64-1.6,12.342,12.342,0,0,0,.763,2.218,13.572,13.572,0,0,0,1.216,2.133,16.414,16.414,0,0,0,1.58,1.994c.294.309.593.613.917.912.164.145.324.294.5.434.085.075.179.145.269.219l.145.11c.05.035.095.07.179.12Z" transform="translate(-27.32 -12.988)"/><path class="v" d="M50.8,45.37a6.674,6.674,0,0,0-3.649,1.161A7.257,7.257,0,0,0,44.6,49.522,8.2,8.2,0,0,0,44.02,51.4a7.791,7.791,0,0,0-.115.962,7.665,7.665,0,0,0,0,.957,9.749,9.749,0,0,0,.847,3.658,33.859,33.859,0,0,1,.189-3.619,13.542,13.542,0,0,1,.309-1.695,10.5,10.5,0,0,1,.563-1.6,8.518,8.518,0,0,1,1.994-2.721A11.409,11.409,0,0,1,50.8,45.37Z" transform="translate(-22.014 -22.753)"/><path class="v" d="M51.367,53.29a2.163,2.163,0,0,0-1.191.4,2.213,2.213,0,0,0-.807,1.032,2.328,2.328,0,0,0-.1,1.286,3.105,3.105,0,0,0,.194.623,4.392,4.392,0,0,0,.329.5,4.675,4.675,0,0,0,0-.6v-.563a3.544,3.544,0,0,1,.2-1,4.047,4.047,0,0,1,1.381-1.685Z" transform="translate(-24.686 -26.726)"/><path class="v" d="M189.957,61.751a6.48,6.48,0,0,0,1.74-3.359,7.058,7.058,0,0,0-.344-3.888,8.368,8.368,0,0,0-.9-1.73,9.118,9.118,0,0,0-.613-.763,8.027,8.027,0,0,0-.678-.688,10.1,10.1,0,0,0-3.225-1.994,35.888,35.888,0,0,1,2.457,2.7,13.58,13.58,0,0,1,1,1.426,10.258,10.258,0,0,1,.753,1.5,8.418,8.418,0,0,1,.553,3.3A11.21,11.21,0,0,1,189.957,61.751Z" transform="translate(-93.262 -24.739)"/><path class="v" d="M189.665,61.853a2.138,2.138,0,0,0,.553-1.116,2.233,2.233,0,0,0-.169-1.291,2.4,2.4,0,0,0-.857-1,2.99,2.99,0,0,0-.563-.289,3.7,3.7,0,0,0-.608-.14c.145.155.294.279.439.414a3.741,3.741,0,0,1,.394.4,3.415,3.415,0,0,1,.588.857A3.893,3.893,0,0,1,189.665,61.853Z" transform="translate(-94.305 -29.098)"/><path class="v" d="M164.39,139.8a6.24,6.24,0,0,0,3.873.688,7.157,7.157,0,0,0,3.738-1.67,8.17,8.17,0,0,0,1.361-1.5,8.532,8.532,0,0,0,.5-.862c.07-.15.155-.294.219-.449l.184-.454a8.518,8.518,0,0,0,.548-3.788c-.693,1.092-1.276,2.138-1.944,3.085a16.889,16.889,0,0,1-1.032,1.351,11.566,11.566,0,0,1-1.161,1.161,9.435,9.435,0,0,1-2.8,1.655A14.39,14.39,0,0,1,164.39,139.8Z" transform="translate(-82.453 -66.089)"/><path class="v" d="M56.532,116.51a5.981,5.981,0,0,0-1.445,3.6,6.943,6.943,0,0,0,.937,3.933,7.85,7.85,0,0,0,1.994,2.273c.135.1.259.2.4.3l.419.264a8.842,8.842,0,0,0,3.678,1.271c-.952-.882-1.884-1.65-2.7-2.492a16.735,16.735,0,0,1-1.146-1.256,11.718,11.718,0,0,1-.927-1.341,9.186,9.186,0,0,1-1.107-3.025A13.543,13.543,0,0,1,56.532,116.51Z" transform="translate(-27.623 -58.435)"/><path class="v" d="M170.13,138.491a2.193,2.193,0,0,0,1.256.125,2.233,2.233,0,0,0,1.166-.6,2.378,2.378,0,0,0,.643-1.131,3.679,3.679,0,0,0,.08-.618,4.125,4.125,0,0,0-.08-.613c-.1.189-.169.374-.244.548a3.577,3.577,0,0,1-.249.5,3.33,3.33,0,0,1-.613.842A4.062,4.062,0,0,1,170.13,138.491Z" transform="translate(-85.332 -68.035)"/><path class="v" d="M84.629,63.24a15.451,15.451,0,0,1-.229,1.834,3.733,3.733,0,0,1-.563,1.426,3.419,3.419,0,0,1-1.136,1c-.5.3-1.052.543-1.67.852a3.609,3.609,0,0,0,2.059.1,3.085,3.085,0,0,0,1.849-1.231,3.12,3.12,0,0,0,.5-2.133A3.29,3.29,0,0,0,84.629,63.24Z" transform="translate(-40.642 -31.716)"/><path class="j" d="M142,56.371a3.554,3.554,0,0,0,.169.907,4.56,4.56,0,0,0,.179.434,3.248,3.248,0,0,0,.239.379,3.49,3.49,0,0,0,.533.593c.09.08.174.135.259.2a2.443,2.443,0,0,0,.259.179,14.629,14.629,0,0,0,1.565.807l.244.13.08.05h.145c.01,0,0,0,0,.03s0,.03-.025.045,0,.04-.045.065a5.732,5.732,0,0,1-1.1.807,6.763,6.763,0,0,0-.807.6l-.214.194-.214.239a2.925,2.925,0,0,0-.374.583,2.492,2.492,0,0,0-.189,1.421,1.746,1.746,0,0,0,.075.349c.04.115.085.224.135.334a1.5,1.5,0,0,0,.179.3,1.856,1.856,0,0,0,.2.264,5.114,5.114,0,0,0,1.675,1.1,4.934,4.934,0,0,1,1.2.663.643.643,0,0,1,.2.324.723.723,0,0,1,0,.4,2.333,2.333,0,0,1-.887.877,9.321,9.321,0,0,0-1.406,1.032,2.064,2.064,0,0,0-.558.857,1.794,1.794,0,0,0,0,1,1.814,1.814,0,0,0,.533.812,3.568,3.568,0,0,0,.733.5c.5.264,1,.464,1.465.743a1.63,1.63,0,0,1,.887,1.246,1.735,1.735,0,0,0-.753-1.431c-.439-.354-.927-.628-1.356-.937a1.839,"/><path class="q" d="M363.7,238.277c-6.689,8.757-18.781,8.653-18.781,8.653L341,236.353l1.077-5.926a4.928,4.928,0,0,1,.259-.917l3.883-9.794a1.271,1.271,0,0,1,1.949-.528l.389.3a2.991,2.991,0,0,1,1.176,2.368v6.161a1.1,1.1,0,0,0,1.675.917l12.795-7.855a1.072,1.072,0,0,1,1.64.9v.135a1.286,1.286,0,0,1-.533,1.047L353.416,231.8l12.745-7.731a1.73,1.73,0,0,1,1.256-.2l.758.169a1.331,1.331,0,0,1,1.042,1.186l.3,4.027a5.224,5.224,0,0,1-1.281,3.833Z" transform="translate(-171.035 -109.803)"/></g></g></g></svg>