<svg xmlns="http://www.w3.org/2000/svg" xmlns:xlink="http://www.w3.org/1999/xlink" width="226.299" height="181.628" viewBox="0 0 226.299 181.628"><defs><style>.a,.t,.u,.v,.w,.x{fill:none;}.b{clip-path:url(#a);}.c{fill:url(#b);}.d{clip-path:url(#c);}.e{fill:#b4c3ca;}.f{fill:#fff;}.g{clip-path:url(#e);}.h{fill:#edeceb;}.i,.m{fill:#a1f0d5;}.j{fill:#9dc5f5;}.k{fill:#404953;}.l{fill:#62a446;}.m{opacity:0.851;}.n{fill:#ffd840;opacity:0.845;}.o{clip-path:url(#bw);}.p{fill:#14d997;}.q{fill:#358911;}.r{fill:#deecfc;}.s{fill:#c5fdad;}.t,.u,.v,.w,.x{stroke:#f3fafd;stroke-miterlimit:10;stroke-width:0.7px;}.u{stroke-dasharray:1.32 1.32 1.32 1.32;}.v{stroke-dasharray:1.32 1.32 1.32 1.32 1.32 1.32;}.w{stroke-dasharray:1.473 1.473 1.473 1.473;}.x{stroke-dasharray:1.473 1.473 1.473 1.473 1.473 1.473;}.y{fill:#b6fe97;opacity:0.898;}</style><clipPath id="a"><path class="a" d="M0,70.115a70.1,70.1,0,0,0,35.137,60.8h0l-.685.107s34.789,18.029,61.5,41.033h0l-.219-.645A52.253,52.253,0,0,0,126.812,181.6h0a52.525,52.525,0,0,0,46.678-28.446h0c16.669-25.087,39.391-42.681,39.391-42.681h0l-.057-.111A35,35,0,0,0,226.3,82.736h0a35.044,35.044,0,0,0-35.031-35.057h0a34.933,34.933,0,0,0-11.163,1.829h0c-25.227,3.539-53.531-22.181-59.124-27.547h0A69.839,69.839,0,0,0,70.062,0h0A70.088,70.088,0,0,0,0,70.115" transform="translate(0.373)"/></clipPath><linearGradient id="b" x1="0.191" y1="0.784" x2="0.759" y2="0.075" gradientUnits="objectBoundingBox"><stop offset="0" stop-color="#e4fdd9"/><stop offset="1" stop-color="#f8fff6"/></linearGradient><clipPath id="c"><path class="a" d="M80.331,0c-3.795,0-7.274.03-10.269.03h0A70.088,70.088,0,0,0,0,70.145H0a70.1,70.1,0,0,0,35.137,60.8h0l-.685.107s34.789,18.029,61.5,41.033h0l-.219-.645a52.253,52.253,0,0,0,31.077,10.193h0a52.525,52.525,0,0,0,46.678-28.446h0C190.159,128.1,212.88,110.5,212.88,110.5h0l-.057-.111A35,35,0,0,0,226.3,82.766h0a35.044,35.044,0,0,0-35.031-35.057h0a34.933,34.933,0,0,0-11.163,1.829h0c-25.227,3.539-29.836-31.87-35.428-37.237h0C133.988.984,102.978.015,81.389,0H80.331Z" transform="translate(0.373 0.671)"/></clipPath><clipPath id="e"><path class="a" d="M80.331,0c-3.795,0-7.274.03-10.269.03h0A70.088,70.088,0,0,0,0,70.145H0a70.1,70.1,0,0,0,35.137,60.8h0l-.685.107s34.789,18.029,61.5,41.033h0l-.219-.645a52.253,52.253,0,0,0,31.077,10.193h0a52.525,52.525,0,0,0,46.678-28.446h0C190.159,128.1,212.88,110.5,212.88,110.5h0l-.057-.111A35,35,0,0,0,226.3,82.766h0a35.044,35.044,0,0,0-35.031-35.057h0a34.933,34.933,0,0,0-11.163,1.829h0c-25.227,3.539-29.836-31.87-35.428-37.237h0C133.988.984,102.978.015,81.389,0h0" transform="translate(0.373 0.671)"/></clipPath><clipPath id="bw"><path class="a" d="M80.331,0c-3.795,0-7.274.03-10.269.03A70.133,70.133,0,0,0,35.137,130.94l-.685.107s34.789,18.029,61.5,41.033l-.219-.645a52.5,52.5,0,0,0,77.755-18.252C190.159,128.1,212.88,110.5,212.88,110.5l-.057-.111a35.044,35.044,0,0,0-32.718-60.853c-25.227,3.539-29.836-31.87-35.428-37.237C133.988.984,102.978.015,81.389,0Z" transform="translate(0.373 0.671)"/></clipPath></defs><g transform="translate(-0.373 -0.701)"><g transform="translate(0 0.731)"><path class="a" d="M0,70.115a70.1,70.1,0,0,0,35.137,60.8h0l-.685.107s34.789,18.029,61.5,41.033h0l-.219-.645A52.253,52.253,0,0,0,126.812,181.6h0a52.525,52.525,0,0,0,46.678-28.446h0c16.669-25.087,39.391-42.681,39.391-42.681h0l-.057-.111A35,35,0,0,0,226.3,82.736h0a35.044,35.044,0,0,0-35.031-35.057h0a34.933,34.933,0,0,0-11.163,1.829h0c-25.227,3.539-53.531-22.181-59.124-27.547h0A69.839,69.839,0,0,0,70.062,0h0A70.088,70.088,0,0,0,0,70.115" transform="translate(0.373)"/><g class="b"><path class="c" d="M0,70.115a70.1,70.1,0,0,0,35.137,60.8h0l-.685.107s34.789,18.029,61.5,41.033h0l-.219-.645A52.253,52.253,0,0,0,126.812,181.6h0a52.525,52.525,0,0,0,46.678-28.446h0c16.669-25.087,39.391-42.681,39.391-42.681h0l-.057-.111A35,35,0,0,0,226.3,82.736h0a35.044,35.044,0,0,0-35.031-35.057h0a34.933,34.933,0,0,0-11.163,1.829h0c-25.227,3.539-53.531-22.181-59.124-27.547h0A69.839,69.839,0,0,0,70.062,0h0A70.088,70.088,0,0,0,0,70.115" transform="translate(0.373)"/></g></g><g transform="translate(0 0.03)"><path class="a" d="M80.331,0c-3.795,0-7.274.03-10.269.03h0A70.088,70.088,0,0,0,0,70.145H0a70.1,70.1,0,0,0,35.137,60.8h0l-.685.107s34.789,18.029,61.5,41.033h0l-.219-.645a52.253,52.253,0,0,0,31.077,10.193h0a52.525,52.525,0,0,0,46.678-28.446h0C190.159,128.1,212.88,110.5,212.88,110.5h0l-.057-.111A35,35,0,0,0,226.3,82.766h0a35.044,35.044,0,0,0-35.031-35.057h0a34.933,34.933,0,0,0-11.163,1.829h0c-25.227,3.539-29.836-31.87-35.428-37.237h0C133.988.984,102.978.015,81.389,0H80.331Z" transform="translate(0.373 0.671)"/><g class="d"><path class="e" d="M25.752,1.26C26.241.561,28.472,0,30.74,0H170.526c2.267,0,4.5.561,4.987,1.26l25.564,35c.759,1.084-.846,6.028-3.6,6.028H3.784c-2.75,0-4.355-4.945-3.6-6.028Z" transform="translate(-35.031 117.927)"/></g><path class="a" d="M80.331,0c-3.795,0-7.274.03-10.269.03h0A70.088,70.088,0,0,0,0,70.145H0a70.1,70.1,0,0,0,35.137,60.8h0l-.685.107s34.789,18.029,61.5,41.033h0l-.219-.645a52.253,52.253,0,0,0,31.077,10.193h0a52.525,52.525,0,0,0,46.678-28.446h0C190.159,128.1,212.88,110.5,212.88,110.5h0l-.057-.111A35,35,0,0,0,226.3,82.766h0a35.044,35.044,0,0,0-35.031-35.057h0a34.933,34.933,0,0,0-11.163,1.829h0c-25.227,3.539-29.836-31.87-35.428-37.237h0C133.988.984,102.978.015,81.389,0H80.331Z" transform="translate(0.373 0.671)"/><g class="d"><path class="f" d="M25.752,1.26C26.241.561,28.472,0,30.74,0H170.526c2.267,0,4.5.561,4.987,1.26l25.564,35c.759,1.084-.846,1.975-3.6,1.975H3.784c-2.75,0-4.355-.891-3.6-1.975Z" transform="translate(-35.031 117.927)"/></g><path class="a" d="M80.331,0c-3.795,0-7.274.03-10.269.03h0A70.088,70.088,0,0,0,0,70.145H0a70.1,70.1,0,0,0,35.137,60.8h0l-.685.107s34.789,18.029,61.5,41.033h0l-.219-.645a52.253,52.253,0,0,0,31.077,10.193h0a52.525,52.525,0,0,0,46.678-28.446h0C190.159,128.1,212.88,110.5,212.88,110.5h0l-.057-.111A35,35,0,0,0,226.3,82.766h0a35.044,35.044,0,0,0-35.031-35.057h0a34.933,34.933,0,0,0-11.163,1.829h0c-25.227,3.539-29.836-31.87-35.428-37.237h0C133.988.984,102.978.015,81.389,0h0" transform="translate(0.373 0.671)"/><g class="g"><path class="h" d="M.028,7.617,2.85.424A.669.669,0,0,1,3.473,0h39.6a.669.669,0,0,1,.623.426l2.794,7.192a.4.4,0,0,1-.374.547H.4a.4.4,0,0,1-.373-.548" transform="translate(42.345 144.953)"/></g><path class="a" d="M80.331,0c-3.795,0-7.274.03-10.269.03h0A70.088,70.088,0,0,0,0,70.145H0a70.1,70.1,0,0,0,35.137,60.8h0l-.685.107s34.789,18.029,61.5,41.033h0l-.219-.645a52.253,52.253,0,0,0,31.077,10.193h0a52.525,52.525,0,0,0,46.678-28.446h0C190.159,128.1,212.88,110.5,212.88,110.5h0l-.057-.111A35,35,0,0,0,226.3,82.766h0a35.044,35.044,0,0,0-35.031-35.057h0a34.933,34.933,0,0,0-11.163,1.829h0c-25.227,3.539-29.836-31.87-35.428-37.237h0C133.988.984,102.978.015,81.389,0h0" transform="translate(0.373 0.671)"/><g class="g"><path class="h" d="M.851,22.52H163.663a.83.83,0,0,0,.743-1.225L152.588,1.335A2.744,2.744,0,0,0,150.212,0H14.3a2.744,2.744,0,0,0-2.376,1.335L.108,21.3A.83.83,0,0,0,.851,22.52" transform="translate(-16.655 120.575)"/></g><path class="a" d="M80.331,0c-3.795,0-7.274.03-10.269.03h0A70.088,70.088,0,0,0,0,70.145H0a70.1,70.1,0,0,0,35.137,60.8h0l-.685.107s34.789,18.029,61.5,41.033h0l-.219-.645a52.253,52.253,0,0,0,31.077,10.193h0a52.525,52.525,0,0,0,46.678-28.446h0C190.159,128.1,212.88,110.5,212.88,110.5h0l-.057-.111A35,35,0,0,0,226.3,82.766h0a35.044,35.044,0,0,0-35.031-35.057h0a34.933,34.933,0,0,0-11.163,1.829h0c-25.227,3.539-29.836-31.87-35.428-37.237h0C133.988.984,102.978.015,81.389,0H80.331Z" transform="translate(0.373 0.671)"/><g class="d"><path class="h" d="M163.733,22.661H.922a.916.916,0,0,1-.8-.464.854.854,0,0,1,0-.867L11.935,1.37A2.8,2.8,0,0,1,14.373,0H150.282a2.8,2.8,0,0,1,2.437,1.37l11.818,19.96a.846.846,0,0,1,0,.867A.913.913,0,0,1,163.733,22.661ZM14.373.14a2.659,2.659,0,0,0-2.316,1.3L.239,21.4a.713.713,0,0,0,0,.725.773.773,0,0,0,.679.393H163.733a.772.772,0,0,0,.678-.393.707.707,0,0,0,0-.725L152.6,1.441a2.656,2.656,0,0,0-2.315-1.3Z" transform="translate(-16.726 120.505)"/></g><path class="a" d="M80.331,0c-3.795,0-7.274.03-10.269.03h0A70.088,70.088,0,0,0,0,70.145H0a70.1,70.1,0,0,0,35.137,60.8h0l-.685.107s34.789,18.029,61.5,41.033h0l-.219-.645a52.253,52.253,0,0,0,31.077,10.193h0a52.525,52.525,0,0,0,46.678-28.446h0C190.159,128.1,212.88,110.5,212.88,110.5h0l-.057-.111A35,35,0,0,0,226.3,82.766h0a35.044,35.044,0,0,0-35.031-35.057h0a34.933,34.933,0,0,0-11.163,1.829h0c-25.227,3.539-29.836-31.87-35.428-37.237h0C133.988.984,102.978.015,81.389,0h0" transform="translate(0.373 0.671)"/><g class="g"><path class="i" d="M1.351,2.713H8a.732.732,0,0,0,.628-1.1L7.918.367A.724.724,0,0,0,7.29,0H.724A.731.731,0,0,0,.079,1.062L.7,2.311a.724.724,0,0,0,.647.4" transform="translate(125.916 121.626)"/></g><path class="a" d="M80.331,0c-3.795,0-7.274.03-10.269.03h0A70.088,70.088,0,0,0,0,70.145H0a70.1,70.1,0,0,0,35.137,60.8h0l-.685.107s34.789,18.029,61.5,41.033h0l-.219-.645a52.253,52.253,0,0,0,31.077,10.193h0a52.525,52.525,0,0,0,46.678-28.446h0C190.159,128.1,212.88,110.5,212.88,110.5h0l-.057-.111A35,35,0,0,0,226.3,82.766h0a35.044,35.044,0,0,0-35.031-35.057h0a34.933,34.933,0,0,0-11.163,1.829h0c-25.227,3.539-29.836-31.87-35.428-37.237h0C133.988.984,102.978.015,81.389,0h0" transform="translate(0.373 0.671)"/><g class="g"><path class="i" d="M1.372,2.747H13.229a.7.7,0,0,0,.629-1.052l-.8-1.342A.73.73,0,0,0,12.432,0H.727A.7.7,0,0,0,.069,1L.714,2.341a.727.727,0,0,0,.658.406" transform="translate(122.708 125.464)"/></g><path class="a" d="M80.331,0c-3.795,0-7.274.03-10.269.03h0A70.088,70.088,0,0,0,0,70.145H0a70.1,70.1,0,0,0,35.137,60.8h0l-.685.107s34.789,18.029,61.5,41.033h0l-.219-.645a52.253,52.253,0,0,0,31.077,10.193h0a52.525,52.525,0,0,0,46.678-28.446h0C190.159,128.1,212.88,110.5,212.88,110.5h0l-.057-.111A35,35,0,0,0,226.3,82.766h0a35.044,35.044,0,0,0-35.031-35.057h0a34.933,34.933,0,0,0-11.163,1.829h0c-25.227,3.539-29.836-31.87-35.428-37.237h0C133.988.984,102.978.015,81.389,0h0" transform="translate(0.373 0.671)"/><g class="g"><path class="i" d="M1.43,2.9H16.389a.7.7,0,0,0,.635-1.053l-.9-1.5A.741.741,0,0,0,15.491,0H.734a.706.706,0,0,0-.67.989l.7,1.5a.736.736,0,0,0,.67.417" transform="translate(122.323 129.458)"/></g><path class="a" d="M80.331,0c-3.795,0-7.274.03-10.269.03h0A70.088,70.088,0,0,0,0,70.145H0a70.1,70.1,0,0,0,35.137,60.8h0l-.685.107s34.789,18.029,61.5,41.033h0l-.219-.645a52.253,52.253,0,0,0,31.077,10.193h0a52.525,52.525,0,0,0,46.678-28.446h0C190.159,128.1,212.88,110.5,212.88,110.5h0l-.057-.111A35,35,0,0,0,226.3,82.766h0a35.044,35.044,0,0,0-35.031-35.057h0a34.933,34.933,0,0,0-11.163,1.829h0c-25.227,3.539-29.836-31.87-35.428-37.237h0C133.988.984,102.978.015,81.389,0h0" transform="translate(0.373 0.671)"/><g class="g"><path class="i" d="M1.588,3.07H11.751a.7.7,0,0,0,.64-1.053l-1-1.665A.747.747,0,0,0,10.746,0H.739A.706.706,0,0,0,.075,1.01l.85,1.665a.743.743,0,0,0,.663.4" transform="translate(129.614 133.586)"/></g><path class="a" d="M80.331,0c-3.795,0-7.274.03-10.269.03h0A70.088,70.088,0,0,0,0,70.145H0a70.1,70.1,0,0,0,35.137,60.8h0l-.685.107s34.789,18.029,61.5,41.033h0l-.219-.645a52.253,52.253,0,0,0,31.077,10.193h0a52.525,52.525,0,0,0,46.678-28.446h0C190.159,128.1,212.88,110.5,212.88,110.5h0l-.057-.111A35,35,0,0,0,226.3,82.766h0a35.044,35.044,0,0,0-35.031-35.057h0a34.933,34.933,0,0,0-11.163,1.829h0c-25.227,3.539-29.836-31.87-35.428-37.237h0C133.988.984,102.978.015,81.389,0h0" transform="translate(0.373 0.671)"/><g class="g"><path class="i" d="M2.032,3.839H9.846a.7.7,0,0,0,.64-1.052L9.018.353A.745.745,0,0,0,8.378,0H.739A.7.7,0,0,0,.081,1.019L1.374,3.453a.742.742,0,0,0,.659.386" transform="translate(134.152 137.915)"/></g><path class="a" d="M80.331,0c-3.795,0-7.274.03-10.269.03h0A70.088,70.088,0,0,0,0,70.145H0a70.1,70.1,0,0,0,35.137,60.8h0l-.685.107s34.789,18.029,61.5,41.033h0l-.219-.645a52.253,52.253,0,0,0,31.077,10.193h0a52.525,52.525,0,0,0,46.678-28.446h0C190.159,128.1,212.88,110.5,212.88,110.5h0l-.057-.111A35,35,0,0,0,226.3,82.766h0a35.044,35.044,0,0,0-35.031-35.057h0a34.933,34.933,0,0,0-11.163,1.829h0c-25.227,3.539-29.836-31.87-35.428-37.237h0C133.988.984,102.978.015,81.389,0h0" transform="translate(0.373 0.671)"/><g class="g"><path class="i" d="M1.828,3.839H9.695a.7.7,0,0,0,.661-1.014L9.092.391A.743.743,0,0,0,8.43,0H.739A.706.706,0,0,0,.06.978L1.148,3.412a.74.74,0,0,0,.68.427" transform="translate(123.302 137.915)"/></g><path class="a" d="M80.331,0c-3.795,0-7.274.03-10.269.03h0A70.088,70.088,0,0,0,0,70.145H0a70.1,70.1,0,0,0,35.137,60.8h0l-.685.107s34.789,18.029,61.5,41.033h0l-.219-.645a52.253,52.253,0,0,0,31.077,10.193h0a52.525,52.525,0,0,0,46.678-28.446h0C190.159,128.1,212.88,110.5,212.88,110.5h0l-.057-.111A35,35,0,0,0,226.3,82.766h0a35.044,35.044,0,0,0-35.031-35.057h0a34.933,34.933,0,0,0-11.163,1.829h0c-25.227,3.539-29.836-31.87-35.428-37.237h0C133.988.984,102.978.015,81.389,0h0" transform="translate(0.373 0.671)"/><g class="g"><path class="i" d="M1.622,3.839H9.535a.707.707,0,0,0,.682-.972L9.158.434A.74.74,0,0,0,8.476,0H.739a.709.709,0,0,0-.7.932L.924,3.366a.736.736,0,0,0,.7.473" transform="translate(112.397 137.915)"/></g><path class="a" d="M80.331,0c-3.795,0-7.274.03-10.269.03h0A70.088,70.088,0,0,0,0,70.145H0a70.1,70.1,0,0,0,35.137,60.8h0l-.685.107s34.789,18.029,61.5,41.033h0l-.219-.645a52.253,52.253,0,0,0,31.077,10.193h0a52.525,52.525,0,0,0,46.678-28.446h0C190.159,128.1,212.88,110.5,212.88,110.5h0l-.057-.111A35,35,0,0,0,226.3,82.766h0a35.044,35.044,0,0,0-35.031-35.057h0a34.933,34.933,0,0,0-11.163,1.829h0c-25.227,3.539-29.836-31.87-35.428-37.237h0C133.988.984,102.978.015,81.389,0h0" transform="translate(0.373 0.671)"/><g class="g"><path class="j" d="M.739,3.839H11.476a.728.728,0,0,0,.729-.588L12.627.817A.714.714,0,0,0,11.9,0H1.388A.732.732,0,0,0,.672.529L.023,2.964a.711.711,0,0,0,.715.875" transform="translate(30.593 137.915)"/></g><path class="a" d="M80.331,0c-3.795,0-7.274.03-10.269.03h0A70.088,70.088,0,0,0,0,70.145H0a70.1,70.1,0,0,0,35.137,60.8h0l-.685.107s34.789,18.029,61.5,41.033h0l-.219-.645a52.253,52.253,0,0,0,31.077,10.193h0a52.525,52.525,0,0,0,46.678-28.446h0C190.159,128.1,212.88,110.5,212.88,110.5h0l-.057-.111A35,35,0,0,0,226.3,82.766h0a35.044,35.044,0,0,0-35.031-35.057h0a34.933,34.933,0,0,0-11.163,1.829h0c-25.227,3.539-29.836-31.87-35.428-37.237h0C133.988.984,102.978.015,81.389,0h0" transform="translate(0.373 0.671)"/><g class="g"><path class="j" d="M.739,3.839H8.7a.734.734,0,0,0,.714-.522L10.095.883A.712.712,0,0,0,9.381,0H1.594a.737.737,0,0,0-.7.48L.039,2.914a.709.709,0,0,0,.7.925" transform="translate(19.54 137.915)"/></g><path class="a" d="M80.331,0c-3.795,0-7.274.03-10.269.03h0A70.088,70.088,0,0,0,0,70.145H0a70.1,70.1,0,0,0,35.137,60.8h0l-.685.107s34.789,18.029,61.5,41.033h0l-.219-.645a52.253,52.253,0,0,0,31.077,10.193h0a52.525,52.525,0,0,0,46.678-28.446h0C190.159,128.1,212.88,110.5,212.88,110.5h0l-.057-.111A35,35,0,0,0,226.3,82.766h0a35.044,35.044,0,0,0-35.031-35.057h0a34.933,34.933,0,0,0-11.163,1.829h0c-25.227,3.539-29.836-31.87-35.428-37.237h0C133.988.984,102.978.015,81.389,0h0" transform="translate(0.373 0.671)"/><g class="g"><path class="j" d="M.739,3.839H8.618a.74.74,0,0,0,.68-.427L10.387.978A.707.707,0,0,0,9.707,0H2a.742.742,0,0,0-.662.391L.078,2.825A.7.7,0,0,0,.739,3.839" transform="translate(-2.543 137.915)"/></g><path class="a" d="M80.331,0c-3.795,0-7.274.03-10.269.03h0A70.088,70.088,0,0,0,0,70.145H0a70.1,70.1,0,0,0,35.137,60.8h0l-.685.107s34.789,18.029,61.5,41.033h0l-.219-.645a52.253,52.253,0,0,0,31.077,10.193h0a52.525,52.525,0,0,0,46.678-28.446h0C190.159,128.1,212.88,110.5,212.88,110.5h0l-.057-.111A35,35,0,0,0,226.3,82.766h0a35.044,35.044,0,0,0-35.031-35.057h0a34.933,34.933,0,0,0-11.163,1.829h0c-25.227,3.539-29.836-31.87-35.428-37.237h0C133.988.984,102.978.015,81.389,0h0" transform="translate(0.373 0.671)"/><g class="g"><path class="j" d="M.739,1.96H8.653a.737.737,0,0,0,.7-.473l.2-.555A.708.708,0,0,0,8.854,0H.981A.741.741,0,0,0,.3.433L.057.988a.707.707,0,0,0,.682.972" transform="translate(8.489 139.807)"/></g><path class="a" d="M80.331,0c-3.795,0-7.274.03-10.269.03h0A70.088,70.088,0,0,0,0,70.145H0a70.1,70.1,0,0,0,35.137,60.8h0l-.685.107s34.789,18.029,61.5,41.033h0l-.219-.645a52.253,52.253,0,0,0,31.077,10.193h0a52.525,52.525,0,0,0,46.678-28.446h0C190.159,128.1,212.88,110.5,212.88,110.5h0l-.057-.111A35,35,0,0,0,226.3,82.766h0a35.044,35.044,0,0,0-35.031-35.057h0a34.933,34.933,0,0,0-11.163,1.829h0c-25.227,3.539-29.836-31.87-35.428-37.237h0C133.988.984,102.978.015,81.389,0h0" transform="translate(0.373 0.671)"/><g class="g"><path class="i" d="M1.365,3.839H12.1a.709.709,0,0,0,.7-.925L11.943.48a.737.737,0,0,0-.7-.48H.738A.712.712,0,0,0,.022.87L.649,3.3a.731.731,0,0,0,.717.535" transform="translate(98.835 137.915)"/></g><path class="a" d="M80.331,0c-3.795,0-7.274.03-10.269.03h0A70.088,70.088,0,0,0,0,70.145H0a70.1,70.1,0,0,0,35.137,60.8h0l-.685.107s34.789,18.029,61.5,41.033h0l-.219-.645a52.253,52.253,0,0,0,31.077,10.193h0a52.525,52.525,0,0,0,46.678-28.446h0C190.159,128.1,212.88,110.5,212.88,110.5h0l-.057-.111A35,35,0,0,0,226.3,82.766h0a35.044,35.044,0,0,0-35.031-35.057h0a34.933,34.933,0,0,0-11.163,1.829h0c-25.227,3.539-29.836-31.87-35.428-37.237h0C133.988.984,102.978.015,81.389,0h0" transform="translate(0.373 0.671)"/><g class="g"><path class="i" d="M.739,3.839H52.794a.711.711,0,0,0,.718-.862l-.6-2.434A.733.733,0,0,0,52.194,0H1.133A.728.728,0,0,0,.4.6L.009,3.03a.714.714,0,0,0,.73.809" transform="translate(44.361 137.915)"/></g><path class="a" d="M80.331,0c-3.795,0-7.274.03-10.269.03h0A70.088,70.088,0,0,0,0,70.145H0a70.1,70.1,0,0,0,35.137,60.8h0l-.685.107s34.789,18.029,61.5,41.033h0l-.219-.645a52.253,52.253,0,0,0,31.077,10.193h0a52.525,52.525,0,0,0,46.678-28.446h0C190.159,128.1,212.88,110.5,212.88,110.5h0l-.057-.111A35,35,0,0,0,226.3,82.766h0a35.044,35.044,0,0,0-35.031-35.057h0a34.933,34.933,0,0,0-11.163,1.829h0c-25.227,3.539-29.836-31.87-35.428-37.237h0C133.988.984,102.978.015,81.389,0h0" transform="translate(0.373 0.671)"/><g class="g"><path class="i" d="M1.251,2.713h6.7A.731.731,0,0,0,8.6,1.656L7.99.407A.723.723,0,0,0,7.341,0H.725A.731.731,0,0,0,.059,1.018L.585,2.268a.724.724,0,0,0,.666.445" transform="translate(116.355 121.626)"/></g><path class="a" d="M80.331,0c-3.795,0-7.274.03-10.269.03h0A70.088,70.088,0,0,0,0,70.145H0a70.1,70.1,0,0,0,35.137,60.8h0l-.685.107s34.789,18.029,61.5,41.033h0l-.219-.645a52.253,52.253,0,0,0,31.077,10.193h0a52.525,52.525,0,0,0,46.678-28.446h0C190.159,128.1,212.88,110.5,212.88,110.5h0l-.057-.111A35,35,0,0,0,226.3,82.766h0a35.044,35.044,0,0,0-35.031-35.057h0a34.933,34.933,0,0,0-11.163,1.829h0c-25.227,3.539-29.836-31.87-35.428-37.237h0C133.988.984,102.978.015,81.389,0h0" transform="translate(0.373 0.671)"/><g class="g"><path class="i" d="M1.152,2.713H7.9A.731.731,0,0,0,8.567,1.7L8.055.452A.726.726,0,0,0,7.386,0H.725A.731.731,0,0,0,.04.971L.467,2.22a.727.727,0,0,0,.685.493" transform="translate(106.787 121.626)"/></g><path class="a" d="M80.331,0c-3.795,0-7.274.03-10.269.03h0A70.088,70.088,0,0,0,0,70.145H0a70.1,70.1,0,0,0,35.137,60.8h0l-.685.107s34.789,18.029,61.5,41.033h0l-.219-.645a52.253,52.253,0,0,0,31.077,10.193h0a52.525,52.525,0,0,0,46.678-28.446h0C190.159,128.1,212.88,110.5,212.88,110.5h0l-.057-.111A35,35,0,0,0,226.3,82.766h0a35.044,35.044,0,0,0-35.031-35.057h0a34.933,34.933,0,0,0-11.163,1.829h0c-25.227,3.539-29.836-31.87-35.428-37.237h0C133.988.984,102.978.015,81.389,0h0" transform="translate(0.373 0.671)"/><g class="g"><path class="i" d="M1.055,2.713H7.838a.731.731,0,0,0,.687-.965L8.109.5A.724.724,0,0,0,7.423,0H.725a.73.73,0,0,0-.7.92l.33,1.249a.725.725,0,0,0,.7.543" transform="translate(97.356 121.626)"/></g><path class="a" d="M80.331,0c-3.795,0-7.274.03-10.269.03h0A70.088,70.088,0,0,0,0,70.145H0a70.1,70.1,0,0,0,35.137,60.8h0l-.685.107s34.789,18.029,61.5,41.033h0l-.219-.645a52.253,52.253,0,0,0,31.077,10.193h0a52.525,52.525,0,0,0,46.678-28.446h0C190.159,128.1,212.88,110.5,212.88,110.5h0l-.057-.111A35,35,0,0,0,226.3,82.766h0a35.044,35.044,0,0,0-35.031-35.057h0a34.933,34.933,0,0,0-11.163,1.829h0c-25.227,3.539-29.836-31.87-35.428-37.237h0C133.988.984,102.978.015,81.389,0h0" transform="translate(0.373 0.671)"/><g class="g"><path class="i" d="M.955,2.713H7.768a.73.73,0,0,0,.7-.913L8.154.55a.725.725,0,0,0-.7-.55H.725A.73.73,0,0,0,.012.865L.243,2.115a.727.727,0,0,0,.713.6" transform="translate(87.798 121.626)"/></g><path class="a" d="M80.331,0c-3.795,0-7.274.03-10.269.03h0A70.088,70.088,0,0,0,0,70.145H0a70.1,70.1,0,0,0,35.137,60.8h0l-.685.107s34.789,18.029,61.5,41.033h0l-.219-.645a52.253,52.253,0,0,0,31.077,10.193h0a52.525,52.525,0,0,0,46.678-28.446h0C190.159,128.1,212.88,110.5,212.88,110.5h0l-.057-.111A35,35,0,0,0,226.3,82.766h0a35.044,35.044,0,0,0-35.031-35.057h0a34.933,34.933,0,0,0-11.163,1.829h0c-25.227,3.539-29.836-31.87-35.428-37.237h0C133.988.984,102.978.015,81.389,0h0" transform="translate(0.373 0.671)"/><g class="g"><path class="i" d="M.856,2.713H7.689A.729.729,0,0,0,8.4,1.855L8.186.605A.727.727,0,0,0,7.472,0H.725A.73.73,0,0,0,0,.809L.136,2.058a.727.727,0,0,0,.72.655" transform="translate(78.281 121.626)"/></g><path class="a" d="M80.331,0c-3.795,0-7.274.03-10.269.03h0A70.088,70.088,0,0,0,0,70.145H0a70.1,70.1,0,0,0,35.137,60.8h0l-.685.107s34.789,18.029,61.5,41.033h0l-.219-.645a52.253,52.253,0,0,0,31.077,10.193h0a52.525,52.525,0,0,0,46.678-28.446h0C190.159,128.1,212.88,110.5,212.88,110.5h0l-.057-.111A35,35,0,0,0,226.3,82.766h0a35.044,35.044,0,0,0-35.031-35.057h0a34.933,34.933,0,0,0-11.163,1.829h0c-25.227,3.539-29.836-31.87-35.428-37.237h0C133.988.984,102.978.015,81.389,0h0" transform="translate(0.373 0.671)"/><g class="g"><path class="i" d="M.757,2.713H7.6a.729.729,0,0,0,.721-.8L8.2.662A.727.727,0,0,0,7.484,0H.724A.727.727,0,0,0,0,.751L.033,2a.728.728,0,0,0,.724.713" transform="translate(68.741 121.626)"/></g><path class="a" d="M80.331,0c-3.795,0-7.274.03-10.269.03h0A70.088,70.088,0,0,0,0,70.145H0a70.1,70.1,0,0,0,35.137,60.8h0l-.685.107s34.789,18.029,61.5,41.033h0l-.219-.645a52.253,52.253,0,0,0,31.077,10.193h0a52.525,52.525,0,0,0,46.678-28.446h0C190.159,128.1,212.88,110.5,212.88,110.5h0l-.057-.111A35,35,0,0,0,226.3,82.766h0a35.044,35.044,0,0,0-35.031-35.057h0a34.933,34.933,0,0,0-11.163,1.829h0c-25.227,3.539-29.836-31.87-35.428-37.237h0C133.988.984,102.978.015,81.389,0h0" transform="translate(0.373 0.671)"/><g class="g"><path class="i" d="M.724,2.713H7.571A.729.729,0,0,0,8.3,1.97L8.277.721A.728.728,0,0,0,7.552,0H.791A.727.727,0,0,0,.068.692L0,1.941a.729.729,0,0,0,.723.771" transform="translate(59.129 121.626)"/></g><path class="a" d="M80.331,0c-3.795,0-7.274.03-10.269.03h0A70.088,70.088,0,0,0,0,70.145H0a70.1,70.1,0,0,0,35.137,60.8h0l-.685.107s34.789,18.029,61.5,41.033h0l-.219-.645a52.253,52.253,0,0,0,31.077,10.193h0a52.525,52.525,0,0,0,46.678-28.446h0C190.159,128.1,212.88,110.5,212.88,110.5h0l-.057-.111A35,35,0,0,0,226.3,82.766h0a35.044,35.044,0,0,0-35.031-35.057h0a34.933,34.933,0,0,0-11.163,1.829h0c-25.227,3.539-29.836-31.87-35.428-37.237h0C133.988.984,102.978.015,81.389,0h0" transform="translate(0.373 0.671)"/><g class="g"><path class="i" d="M.724,2.713H7.565a.727.727,0,0,0,.722-.686L8.366.778A.728.728,0,0,0,7.643,0H.888A.727.727,0,0,0,.17.635L.006,1.884a.729.729,0,0,0,.717.829" transform="translate(49.622 121.626)"/></g><path class="a" d="M80.331,0c-3.795,0-7.274.03-10.269.03h0A70.088,70.088,0,0,0,0,70.145H0a70.1,70.1,0,0,0,35.137,60.8h0l-.685.107s34.789,18.029,61.5,41.033h0l-.219-.645a52.253,52.253,0,0,0,31.077,10.193h0a52.525,52.525,0,0,0,46.678-28.446h0C190.159,128.1,212.88,110.5,212.88,110.5h0l-.057-.111A35,35,0,0,0,226.3,82.766h0a35.044,35.044,0,0,0-35.031-35.057h0a34.933,34.933,0,0,0-11.163,1.829h0c-25.227,3.539-29.836-31.87-35.428-37.237h0C133.988.984,102.978.015,81.389,0h0" transform="translate(0.373 0.671)"/><g class="g"><path class="i" d="M.725,2.713H7.549a.728.728,0,0,0,.717-.628L8.444.836A.73.73,0,0,0,7.727,0H.988A.727.727,0,0,0,.279.579L.016,1.829a.73.73,0,0,0,.709.884" transform="translate(39.987 121.626)"/></g><path class="a" d="M80.331,0c-3.795,0-7.274.03-10.269.03h0A70.088,70.088,0,0,0,0,70.145H0a70.1,70.1,0,0,0,35.137,60.8h0l-.685.107s34.789,18.029,61.5,41.033h0l-.219-.645a52.253,52.253,0,0,0,31.077,10.193h0a52.525,52.525,0,0,0,46.678-28.446h0C190.159,128.1,212.88,110.5,212.88,110.5h0l-.057-.111A35,35,0,0,0,226.3,82.766h0a35.044,35.044,0,0,0-35.031-35.057h0a34.933,34.933,0,0,0-11.163,1.829h0c-25.227,3.539-29.836-31.87-35.428-37.237h0C133.988.984,102.978.015,81.389,0h0" transform="translate(0.373 0.671)"/><g class="g"><path class="i" d="M.725,2.713h6.8a.727.727,0,0,0,.707-.571L8.509.893A.729.729,0,0,0,7.8,0H1.089a.726.726,0,0,0-.7.525L.03,1.774a.731.731,0,0,0,.7.939" transform="translate(30.205 121.626)"/></g><path class="a" d="M80.331,0c-3.795,0-7.274.03-10.269.03h0A70.088,70.088,0,0,0,0,70.145H0a70.1,70.1,0,0,0,35.137,60.8h0l-.685.107s34.789,18.029,61.5,41.033h0l-.219-.645a52.253,52.253,0,0,0,31.077,10.193h0a52.525,52.525,0,0,0,46.678-28.446h0C190.159,128.1,212.88,110.5,212.88,110.5h0l-.057-.111A35,35,0,0,0,226.3,82.766h0a35.044,35.044,0,0,0-35.031-35.057h0a34.933,34.933,0,0,0-11.163,1.829h0c-25.227,3.539-29.836-31.87-35.428-37.237h0C133.988.984,102.978.015,81.389,0h0" transform="translate(0.373 0.671)"/><g class="g"><path class="i" d="M.725,2.713H7.491a.725.725,0,0,0,.693-.519L8.561.945A.731.731,0,0,0,7.868,0H1.187A.725.725,0,0,0,.508.476L.046,1.725a.731.731,0,0,0,.679.988" transform="translate(20.71 121.626)"/></g><path class="a" d="M80.331,0c-3.795,0-7.274.03-10.269.03h0A70.088,70.088,0,0,0,0,70.145H0a70.1,70.1,0,0,0,35.137,60.8h0l-.685.107s34.789,18.029,61.5,41.033h0l-.219-.645a52.253,52.253,0,0,0,31.077,10.193h0a52.525,52.525,0,0,0,46.678-28.446h0C190.159,128.1,212.88,110.5,212.88,110.5h0l-.057-.111A35,35,0,0,0,226.3,82.766h0a35.044,35.044,0,0,0-35.031-35.057h0a34.933,34.933,0,0,0-11.163,1.829h0c-25.227,3.539-29.836-31.87-35.428-37.237h0C133.988.984,102.978.015,81.389,0h0" transform="translate(0.373 0.671)"/><g class="g"><path class="i" d="M1.261,2.747H8.228a.7.7,0,0,0,.661-.994L8.259.412A.728.728,0,0,0,7.6,0H.726A.705.705,0,0,0,.049.955L.583,2.3a.727.727,0,0,0,.677.45" transform="translate(112.87 125.464)"/></g><path class="a" d="M80.331,0c-3.795,0-7.274.03-10.269.03h0A70.088,70.088,0,0,0,0,70.145H0a70.1,70.1,0,0,0,35.137,60.8h0l-.685.107s34.789,18.029,61.5,41.033h0l-.219-.645a52.253,52.253,0,0,0,31.077,10.193h0a52.525,52.525,0,0,0,46.678-28.446h0C190.159,128.1,212.88,110.5,212.88,110.5h0l-.057-.111A35,35,0,0,0,226.3,82.766h0a35.044,35.044,0,0,0-35.031-35.057h0a34.933,34.933,0,0,0-11.163,1.829h0c-25.227,3.539-29.836-31.87-35.428-37.237h0C133.988.984,102.978.015,81.389,0h0" transform="translate(0.373 0.671)"/><g class="g"><path class="i" d="M1.15,2.747H8.159a.706.706,0,0,0,.68-.949L8.319.456A.725.725,0,0,0,7.639,0H.726A.707.707,0,0,0,.032.908L.456,2.25a.723.723,0,0,0,.694.5" transform="translate(103.03 125.464)"/></g><path class="a" d="M80.331,0c-3.795,0-7.274.03-10.269.03h0A70.088,70.088,0,0,0,0,70.145H0a70.1,70.1,0,0,0,35.137,60.8h0l-.685.107s34.789,18.029,61.5,41.033h0l-.219-.645a52.253,52.253,0,0,0,31.077,10.193h0a52.525,52.525,0,0,0,46.678-28.446h0C190.159,128.1,212.88,110.5,212.88,110.5h0l-.057-.111A35,35,0,0,0,226.3,82.766h0a35.044,35.044,0,0,0-35.031-35.057h0a34.933,34.933,0,0,0-11.163,1.829h0c-25.227,3.539-29.836-31.87-35.428-37.237h0C133.988.984,102.978.015,81.389,0h0" transform="translate(0.373 0.671)"/><g class="g"><path class="i" d="M1.04,2.747H8.081a.708.708,0,0,0,.7-.9L8.368.5a.722.722,0,0,0-.7-.5H.726A.709.709,0,0,0,.018.858L.331,2.2a.722.722,0,0,0,.708.548" transform="translate(93.331 125.464)"/></g><path class="a" d="M80.331,0c-3.795,0-7.274.03-10.269.03h0A70.088,70.088,0,0,0,0,70.145H0a70.1,70.1,0,0,0,35.137,60.8h0l-.685.107s34.789,18.029,61.5,41.033h0l-.219-.645a52.253,52.253,0,0,0,31.077,10.193h0a52.525,52.525,0,0,0,46.678-28.446h0C190.159,128.1,212.88,110.5,212.88,110.5h0l-.057-.111A35,35,0,0,0,226.3,82.766h0a35.044,35.044,0,0,0-35.031-35.057h0a34.933,34.933,0,0,0-11.163,1.829h0c-25.227,3.539-29.836-31.87-35.428-37.237h0C133.988.984,102.978.015,81.389,0h0" transform="translate(0.373 0.671)"/><g class="g"><path class="i" d="M.928,2.747H7.995A.709.709,0,0,0,8.7,1.9L8.407.555A.722.722,0,0,0,7.7,0H.726A.711.711,0,0,0,.008.8l.2,1.342a.719.719,0,0,0,.718.6" transform="translate(83.502 125.464)"/></g><path class="a" d="M80.331,0c-3.795,0-7.274.03-10.269.03h0A70.088,70.088,0,0,0,0,70.145H0a70.1,70.1,0,0,0,35.137,60.8h0l-.685.107s34.789,18.029,61.5,41.033h0l-.219-.645a52.253,52.253,0,0,0,31.077,10.193h0a52.525,52.525,0,0,0,46.678-28.446h0C190.159,128.1,212.88,110.5,212.88,110.5h0l-.057-.111A35,35,0,0,0,226.3,82.766h0a35.044,35.044,0,0,0-35.031-35.057h0a34.933,34.933,0,0,0-11.163,1.829h0c-25.227,3.539-29.836-31.87-35.428-37.237h0C133.988.984,102.978.015,81.389,0h0" transform="translate(0.373 0.671)"/><g class="g"><path class="i" d="M.817,2.747H7.9a.711.711,0,0,0,.72-.8L8.431.609A.718.718,0,0,0,7.713,0H.725A.712.712,0,0,0,0,.749L.093,2.091a.716.716,0,0,0,.724.656" transform="translate(73.714 125.464)"/></g><path class="a" d="M80.331,0c-3.795,0-7.274.03-10.269.03h0A70.088,70.088,0,0,0,0,70.145H0a70.1,70.1,0,0,0,35.137,60.8h0l-.685.107s34.789,18.029,61.5,41.033h0l-.219-.645a52.253,52.253,0,0,0,31.077,10.193h0a52.525,52.525,0,0,0,46.678-28.446h0C190.159,128.1,212.88,110.5,212.88,110.5h0l-.057-.111A35,35,0,0,0,226.3,82.766h0a35.044,35.044,0,0,0-35.031-35.057h0a34.933,34.933,0,0,0-11.163,1.829h0c-25.227,3.539-29.836-31.87-35.428-37.237h0C133.988.984,102.978.015,81.389,0h0" transform="translate(0.373 0.671)"/><g class="g"><path class="i" d="M.726,2.747h7.09a.712.712,0,0,0,.724-.742L8.464.664A.716.716,0,0,0,7.739,0H.745A.715.715,0,0,0,.019.693L0,2.035a.714.714,0,0,0,.726.712" transform="translate(63.883 125.464)"/></g><path class="a" d="M80.331,0c-3.795,0-7.274.03-10.269.03h0A70.088,70.088,0,0,0,0,70.145H0a70.1,70.1,0,0,0,35.137,60.8h0l-.685.107s34.789,18.029,61.5,41.033h0l-.219-.645a52.253,52.253,0,0,0,31.077,10.193h0a52.525,52.525,0,0,0,46.678-28.446h0C190.159,128.1,212.88,110.5,212.88,110.5h0l-.057-.111A35,35,0,0,0,226.3,82.766h0a35.044,35.044,0,0,0-35.031-35.057h0a34.933,34.933,0,0,0-11.163,1.829h0c-25.227,3.539-29.836-31.87-35.428-37.237h0C133.988.984,102.978.015,81.389,0h0" transform="translate(0.373 0.671)"/><g class="g"><path class="i" d="M.726,2.747H7.813a.715.715,0,0,0,.725-.685L8.573.72A.713.713,0,0,0,7.847,0H.856A.718.718,0,0,0,.133.637L0,1.979a.712.712,0,0,0,.722.768" transform="translate(53.954 125.464)"/></g><path class="a" d="M80.331,0c-3.795,0-7.274.03-10.269.03h0A70.088,70.088,0,0,0,0,70.145H0a70.1,70.1,0,0,0,35.137,60.8h0l-.685.107s34.789,18.029,61.5,41.033h0l-.219-.645a52.253,52.253,0,0,0,31.077,10.193h0a52.525,52.525,0,0,0,46.678-28.446h0C190.159,128.1,212.88,110.5,212.88,110.5h0l-.057-.111A35,35,0,0,0,226.3,82.766h0a35.044,35.044,0,0,0-35.031-35.057h0a34.933,34.933,0,0,0-11.163,1.829h0c-25.227,3.539-29.836-31.87-35.428-37.237h0C133.988.984,102.978.015,81.389,0h0" transform="translate(0.373 0.671)"/><g class="g"><path class="i" d="M.726,2.747H7.8a.718.718,0,0,0,.722-.63L8.669.775A.712.712,0,0,0,7.947,0H.966A.721.721,0,0,0,.25.583L.011,1.925a.71.71,0,0,0,.715.822" transform="translate(44.167 125.464)"/></g><path class="a" d="M80.331,0c-3.795,0-7.274.03-10.269.03h0A70.088,70.088,0,0,0,0,70.145H0a70.1,70.1,0,0,0,35.137,60.8h0l-.685.107s34.789,18.029,61.5,41.033h0l-.219-.645a52.253,52.253,0,0,0,31.077,10.193h0a52.525,52.525,0,0,0,46.678-28.446h0C190.159,128.1,212.88,110.5,212.88,110.5h0l-.057-.111A35,35,0,0,0,226.3,82.766h0a35.044,35.044,0,0,0-35.031-35.057h0a34.933,34.933,0,0,0-11.163,1.829h0c-25.227,3.539-29.836-31.87-35.428-37.237h0C133.988.984,102.978.015,81.389,0h0" transform="translate(0.373 0.671)"/><g class="g"><path class="i" d="M.727,2.747H7.782A.721.721,0,0,0,8.5,2.172L8.751.83A.71.71,0,0,0,8.037,0H1.078a.722.722,0,0,0-.7.53L.022,1.872a.708.708,0,0,0,.7.875" transform="translate(34.249 125.464)"/></g><path class="a" d="M80.331,0c-3.795,0-7.274.03-10.269.03h0A70.088,70.088,0,0,0,0,70.145H0a70.1,70.1,0,0,0,35.137,60.8h0l-.685.107s34.789,18.029,61.5,41.033h0l-.219-.645a52.253,52.253,0,0,0,31.077,10.193h0a52.525,52.525,0,0,0,46.678-28.446h0C190.159,128.1,212.88,110.5,212.88,110.5h0l-.057-.111A35,35,0,0,0,226.3,82.766h0a35.044,35.044,0,0,0-35.031-35.057h0a34.933,34.933,0,0,0-11.163,1.829h0c-25.227,3.539-29.836-31.87-35.428-37.237h0C133.988.984,102.978.015,81.389,0h0" transform="translate(0.373 0.671)"/><g class="g"><path class="i" d="M.726,2.747H7.752a.722.722,0,0,0,.7-.522L8.822.883A.708.708,0,0,0,8.121,0H1.19A.723.723,0,0,0,.5.48L.038,1.822a.706.706,0,0,0,.688.926" transform="translate(24.179 125.464)"/></g><path class="a" d="M80.331,0c-3.795,0-7.274.03-10.269.03h0A70.088,70.088,0,0,0,0,70.145H0a70.1,70.1,0,0,0,35.137,60.8h0l-.685.107s34.789,18.029,61.5,41.033h0l-.219-.645a52.253,52.253,0,0,0,31.077,10.193h0a52.525,52.525,0,0,0,46.678-28.446h0C190.159,128.1,212.88,110.5,212.88,110.5h0l-.057-.111A35,35,0,0,0,226.3,82.766h0a35.044,35.044,0,0,0-35.031-35.057h0a34.933,34.933,0,0,0-11.163,1.829h0c-25.227,3.539-29.836-31.87-35.428-37.237h0C133.988.984,102.978.015,81.389,0H80.331Z" transform="translate(0.373 0.671)"/><g class="d"><path class="j" d="M.1,1.51A.836.836,0,0,0,.951,2.747H6.778A2.075,2.075,0,0,0,8.612,1.482l.077-.217A.9.9,0,0,0,7.757,0H2.125A2.245,2.245,0,0,0,.214,1.236Z" transform="translate(14.477 125.464)"/></g><path class="a" d="M80.331,0c-3.795,0-7.274.03-10.269.03h0A70.088,70.088,0,0,0,0,70.145H0a70.1,70.1,0,0,0,35.137,60.8h0l-.685.107s34.789,18.029,61.5,41.033h0l-.219-.645a52.253,52.253,0,0,0,31.077,10.193h0a52.525,52.525,0,0,0,46.678-28.446h0C190.159,128.1,212.88,110.5,212.88,110.5h0l-.057-.111A35,35,0,0,0,226.3,82.766h0a35.044,35.044,0,0,0-35.031-35.057h0a34.933,34.933,0,0,0-11.163,1.829h0c-25.227,3.539-29.836-31.87-35.428-37.237h0C133.988.984,102.978.015,81.389,0h0" transform="translate(0.373 0.671)"/><g class="g"><path class="j" d="M.727,2.747H7.671a.726.726,0,0,0,.668-.427L8.928.978A.7.7,0,0,0,8.261,0H1.413A.728.728,0,0,0,.762.391L.076,1.733A.7.7,0,0,0,.727,2.747" transform="translate(4.415 125.464)"/></g><path class="a" d="M80.331,0c-3.795,0-7.274.03-10.269.03h0A70.088,70.088,0,0,0,0,70.145H0a70.1,70.1,0,0,0,35.137,60.8h0l-.685.107s34.789,18.029,61.5,41.033h0l-.219-.645a52.253,52.253,0,0,0,31.077,10.193h0a52.525,52.525,0,0,0,46.678-28.446h0C190.159,128.1,212.88,110.5,212.88,110.5h0l-.057-.111A35,35,0,0,0,226.3,82.766h0a35.044,35.044,0,0,0-35.031-35.057h0a34.933,34.933,0,0,0-11.163,1.829h0c-25.227,3.539-29.836-31.87-35.428-37.237h0C133.988.984,102.978.015,81.389,0h0" transform="translate(0.373 0.671)"/><g class="g"><path class="i" d="M1.305,2.9H8.6a.706.706,0,0,0,.673-.983l-.68-1.5A.735.735,0,0,0,7.921,0H.734A.707.707,0,0,0,.045.944l.572,1.5a.734.734,0,0,0,.689.461" transform="translate(112.124 129.458)"/></g><path class="a" d="M80.331,0c-3.795,0-7.274.03-10.269.03h0A70.088,70.088,0,0,0,0,70.145H0a70.1,70.1,0,0,0,35.137,60.8h0l-.685.107s34.789,18.029,61.5,41.033h0l-.219-.645a52.253,52.253,0,0,0,31.077,10.193h0a52.525,52.525,0,0,0,46.678-28.446h0C190.159,128.1,212.88,110.5,212.88,110.5h0l-.057-.111A35,35,0,0,0,226.3,82.766h0a35.044,35.044,0,0,0-35.031-35.057h0a34.933,34.933,0,0,0-11.163,1.829h0c-25.227,3.539-29.836-31.87-35.428-37.237h0C133.988.984,102.978.015,81.389,0h0" transform="translate(0.373 0.671)"/><g class="g"><path class="i" d="M1.18,2.9H8.515a.708.708,0,0,0,.691-.937L8.652.468A.733.733,0,0,0,7.961,0H.734A.71.71,0,0,0,.028.9l.446,1.5a.729.729,0,0,0,.706.51" transform="translate(101.912 129.458)"/></g><path class="a" d="M80.331,0c-3.795,0-7.274.03-10.269.03h0A70.088,70.088,0,0,0,0,70.145H0a70.1,70.1,0,0,0,35.137,60.8h0l-.685.107s34.789,18.029,61.5,41.033h0l-.219-.645a52.253,52.253,0,0,0,31.077,10.193h0a52.525,52.525,0,0,0,46.678-28.446h0C190.159,128.1,212.88,110.5,212.88,110.5h0l-.057-.111A35,35,0,0,0,226.3,82.766h0a35.044,35.044,0,0,0-35.031-35.057h0a34.933,34.933,0,0,0-11.163,1.829h0c-25.227,3.539-29.836-31.87-35.428-37.237h0C133.988.984,102.978.015,81.389,0h0" transform="translate(0.373 0.671)"/><g class="g"><path class="i" d="M1.055,2.9H8.421a.709.709,0,0,0,.706-.89L8.7.517A.729.729,0,0,0,7.991,0H.733A.711.711,0,0,0,.015.844l.322,1.5a.726.726,0,0,0,.717.561" transform="translate(91.848 129.458)"/></g><path class="a" d="M80.331,0c-3.795,0-7.274.03-10.269.03h0A70.088,70.088,0,0,0,0,70.145H0a70.1,70.1,0,0,0,35.137,60.8h0l-.685.107s34.789,18.029,61.5,41.033h0l-.219-.645a52.253,52.253,0,0,0,31.077,10.193h0a52.525,52.525,0,0,0,46.678-28.446h0C190.159,128.1,212.88,110.5,212.88,110.5h0l-.057-.111A35,35,0,0,0,226.3,82.766h0a35.044,35.044,0,0,0-35.031-35.057h0a34.933,34.933,0,0,0-11.163,1.829h0c-25.227,3.539-29.836-31.87-35.428-37.237h0C133.988.984,102.978.015,81.389,0h0" transform="translate(0.373 0.671)"/><g class="g"><path class="i" d="M.93,2.9H8.319a.712.712,0,0,0,.72-.837l-.3-1.5A.727.727,0,0,0,8.014,0H.733A.714.714,0,0,0,.006.791l.2,1.5A.723.723,0,0,0,.93,2.9" transform="translate(81.647 129.458)"/></g><path class="a" d="M80.331,0c-3.795,0-7.274.03-10.269.03h0A70.088,70.088,0,0,0,0,70.145H0a70.1,70.1,0,0,0,35.137,60.8h0l-.685.107s34.789,18.029,61.5,41.033h0l-.219-.645a52.253,52.253,0,0,0,31.077,10.193h0a52.525,52.525,0,0,0,46.678-28.446h0C190.159,128.1,212.88,110.5,212.88,110.5h0l-.057-.111A35,35,0,0,0,226.3,82.766h0a35.044,35.044,0,0,0-35.031-35.057h0a34.933,34.933,0,0,0-11.163,1.829h0c-25.227,3.539-29.836-31.87-35.428-37.237h0C133.988.984,102.978.015,81.389,0h0" transform="translate(0.373 0.671)"/><g class="g"><path class="i" d="M.806,2.9h7.4a.714.714,0,0,0,.729-.783L8.757.623A.724.724,0,0,0,8.028,0H.733A.717.717,0,0,0,0,.736l.072,1.5a.72.72,0,0,0,.733.67" transform="translate(71.489 129.458)"/></g><path class="a" d="M80.331,0c-3.795,0-7.274.03-10.269.03h0A70.088,70.088,0,0,0,0,70.145H0a70.1,70.1,0,0,0,35.137,60.8h0l-.685.107s34.789,18.029,61.5,41.033h0l-.219-.645a52.253,52.253,0,0,0,31.077,10.193h0a52.525,52.525,0,0,0,46.678-28.446h0C190.159,128.1,212.88,110.5,212.88,110.5h0l-.057-.111A35,35,0,0,0,226.3,82.766h0a35.044,35.044,0,0,0-35.031-35.057h0a34.933,34.933,0,0,0-11.163,1.829h0c-25.227,3.539-29.836-31.87-35.428-37.237h0C133.988.984,102.978.015,81.389,0h0" transform="translate(0.373 0.671)"/><g class="g"><path class="i" d="M.733,2.9H8.141a.717.717,0,0,0,.733-.728L8.819.678A.72.72,0,0,0,8.086,0H.786A.72.72,0,0,0,.053.679L0,2.177A.718.718,0,0,0,.733,2.9" transform="translate(61.253 129.458)"/></g><path class="a" d="M80.331,0c-3.795,0-7.274.03-10.269.03h0A70.088,70.088,0,0,0,0,70.145H0a70.1,70.1,0,0,0,35.137,60.8h0l-.685.107s34.789,18.029,61.5,41.033h0l-.219-.645a52.253,52.253,0,0,0,31.077,10.193h0a52.525,52.525,0,0,0,46.678-28.446h0C190.159,128.1,212.88,110.5,212.88,110.5h0l-.057-.111A35,35,0,0,0,226.3,82.766h0a35.044,35.044,0,0,0-35.031-35.057h0a34.933,34.933,0,0,0-11.163,1.829h0c-25.227,3.539-29.836-31.87-35.428-37.237h0C133.988.984,102.978.015,81.389,0h0" transform="translate(0.373 0.671)"/><g class="g"><path class="i" d="M.733,2.9h7.4a.72.72,0,0,0,.733-.672L8.94.734A.717.717,0,0,0,8.207,0H.911A.721.721,0,0,0,.183.623L0,2.121A.715.715,0,0,0,.733,2.9" transform="translate(50.939 129.458)"/></g><path class="a" d="M80.331,0c-3.795,0-7.274.03-10.269.03h0A70.088,70.088,0,0,0,0,70.145H0a70.1,70.1,0,0,0,35.137,60.8h0l-.685.107s34.789,18.029,61.5,41.033h0l-.219-.645a52.253,52.253,0,0,0,31.077,10.193h0a52.525,52.525,0,0,0,46.678-28.446h0C190.159,128.1,212.88,110.5,212.88,110.5h0l-.057-.111A35,35,0,0,0,226.3,82.766h0a35.044,35.044,0,0,0-35.031-35.057h0a34.933,34.933,0,0,0-11.163,1.829h0c-25.227,3.539-29.836-31.87-35.428-37.237h0C133.988.984,102.978.015,81.389,0h0" transform="translate(0.373 0.671)"/><g class="g"><path class="i" d="M.733,2.9H8.123a.724.724,0,0,0,.728-.616l.193-1.5A.714.714,0,0,0,8.316,0H1.035A.727.727,0,0,0,.314.57l-.3,1.5a.712.712,0,0,0,.72.836" transform="translate(40.773 129.458)"/></g><path class="a" d="M80.331,0c-3.795,0-7.274.03-10.269.03h0A70.088,70.088,0,0,0,0,70.145H0a70.1,70.1,0,0,0,35.137,60.8h0l-.685.107s34.789,18.029,61.5,41.033h0l-.219-.645a52.253,52.253,0,0,0,31.077,10.193h0a52.525,52.525,0,0,0,46.678-28.446h0C190.159,128.1,212.88,110.5,212.88,110.5h0l-.057-.111A35,35,0,0,0,226.3,82.766h0a35.044,35.044,0,0,0-35.031-35.057h0a34.933,34.933,0,0,0-11.163,1.829h0c-25.227,3.539-29.836-31.87-35.428-37.237h0C133.988.984,102.978.015,81.389,0h0" transform="translate(0.373 0.671)"/><g class="g"><path class="i" d="M.734,2.9H8.1a.727.727,0,0,0,.718-.562l.319-1.5A.711.711,0,0,0,8.419,0H1.16A.729.729,0,0,0,.453.518l-.427,1.5A.711.711,0,0,0,.734,2.9" transform="translate(30.469 129.458)"/></g><path class="a" d="M80.331,0c-3.795,0-7.274.03-10.269.03h0A70.088,70.088,0,0,0,0,70.145H0a70.1,70.1,0,0,0,35.137,60.8h0l-.685.107s34.789,18.029,61.5,41.033h0l-.219-.645a52.253,52.253,0,0,0,31.077,10.193h0a52.525,52.525,0,0,0,46.678-28.446h0C190.159,128.1,212.88,110.5,212.88,110.5h0l-.057-.111A35,35,0,0,0,226.3,82.766h0a35.044,35.044,0,0,0-35.031-35.057h0a34.933,34.933,0,0,0-11.163,1.829h0c-25.227,3.539-29.836-31.87-35.428-37.237h0C133.988.984,102.978.015,81.389,0h0" transform="translate(0.373 0.671)"/><g class="g"><path class="j" d="M.734,2.9H8.068a.73.73,0,0,0,.706-.51L9.22.9A.709.709,0,0,0,8.514,0H1.288A.732.732,0,0,0,.6.468l-.554,1.5A.708.708,0,0,0,.734,2.9" transform="translate(20.007 129.458)"/></g><path class="a" d="M80.331,0c-3.795,0-7.274.03-10.269.03h0A70.088,70.088,0,0,0,0,70.145H0a70.1,70.1,0,0,0,35.137,60.8h0l-.685.107s34.789,18.029,61.5,41.033h0l-.219-.645a52.253,52.253,0,0,0,31.077,10.193h0a52.525,52.525,0,0,0,46.678-28.446h0C190.159,128.1,212.88,110.5,212.88,110.5h0l-.057-.111A35,35,0,0,0,226.3,82.766h0a35.044,35.044,0,0,0-35.031-35.057h0a34.933,34.933,0,0,0-11.163,1.829h0c-25.227,3.539-29.836-31.87-35.428-37.237h0C133.988.984,102.978.015,81.389,0h0" transform="translate(0.373 0.671)"/><g class="g"><path class="j" d="M.734,2.9h7.3a.733.733,0,0,0,.689-.462l.57-1.5A.708.708,0,0,0,8.6,0H1.411A.736.736,0,0,0,.739.423l-.677,1.5A.706.706,0,0,0,.734,2.9" transform="translate(9.852 129.458)"/></g><path class="a" d="M80.331,0c-3.795,0-7.274.03-10.269.03h0A70.088,70.088,0,0,0,0,70.145H0a70.1,70.1,0,0,0,35.137,60.8h0l-.685.107s34.789,18.029,61.5,41.033h0l-.219-.645a52.253,52.253,0,0,0,31.077,10.193h0a52.525,52.525,0,0,0,46.678-28.446h0C190.159,128.1,212.88,110.5,212.88,110.5h0l-.057-.111A35,35,0,0,0,226.3,82.766h0a35.044,35.044,0,0,0-35.031-35.057h0a34.933,34.933,0,0,0-11.163,1.829h0c-25.227,3.539-29.836-31.87-35.428-37.237h0C133.988.984,102.978.015,81.389,0h0" transform="translate(0.373 0.671)"/><g class="g"><path class="i" d="M1.449,3.07h7.58a.706.706,0,0,0,.667-1L8.865.4A.742.742,0,0,0,8.2,0H.739A.707.707,0,0,0,.055.967L.764,2.631a.74.74,0,0,0,.685.439" transform="translate(119.044 133.586)"/></g><path class="a" d="M80.331,0c-3.795,0-7.274.03-10.269.03h0A70.088,70.088,0,0,0,0,70.145H0a70.1,70.1,0,0,0,35.137,60.8h0l-.685.107s34.789,18.029,61.5,41.033h0l-.219-.645a52.253,52.253,0,0,0,31.077,10.193h0a52.525,52.525,0,0,0,46.678-28.446h0C190.159,128.1,212.88,110.5,212.88,110.5h0l-.057-.111A35,35,0,0,0,226.3,82.766h0a35.044,35.044,0,0,0-35.031-35.057h0a34.933,34.933,0,0,0-11.163,1.829h0c-25.227,3.539-29.836-31.87-35.428-37.237h0C133.988.984,102.978.015,81.389,0h0" transform="translate(0.373 0.671)"/><g class="g"><path class="i" d="M1.308,3.07H8.932a.707.707,0,0,0,.686-.961L8.928.445A.738.738,0,0,0,8.241,0H.739a.709.709,0,0,0-.7.921L.606,2.585a.735.735,0,0,0,.7.485" transform="translate(108.475 133.586)"/></g><path class="a" d="M80.331,0c-3.795,0-7.274.03-10.269.03h0A70.088,70.088,0,0,0,0,70.145H0a70.1,70.1,0,0,0,35.137,60.8h0l-.685.107s34.789,18.029,61.5,41.033h0l-.219-.645a52.253,52.253,0,0,0,31.077,10.193h0a52.525,52.525,0,0,0,46.678-28.446h0C190.159,128.1,212.88,110.5,212.88,110.5h0l-.057-.111A35,35,0,0,0,226.3,82.766h0a35.044,35.044,0,0,0-35.031-35.057h0a34.933,34.933,0,0,0-11.163,1.829h0c-25.227,3.539-29.836-31.87-35.428-37.237h0C133.988.984,102.978.015,81.389,0h0" transform="translate(0.373 0.671)"/><g class="g"><path class="i" d="M1.17,3.07H8.829a.71.71,0,0,0,.7-.914L8.981.492A.734.734,0,0,0,8.278,0H.739A.711.711,0,0,0,.022.871L.453,2.535a.731.731,0,0,0,.717.535" transform="translate(98.056 133.586)"/></g><path class="a" d="M80.331,0c-3.795,0-7.274.03-10.269.03h0A70.088,70.088,0,0,0,0,70.145H0a70.1,70.1,0,0,0,35.137,60.8h0l-.685.107s34.789,18.029,61.5,41.033h0l-.219-.645a52.253,52.253,0,0,0,31.077,10.193h0a52.525,52.525,0,0,0,46.678-28.446h0C190.159,128.1,212.88,110.5,212.88,110.5h0l-.057-.111A35,35,0,0,0,226.3,82.766h0a35.044,35.044,0,0,0-35.031-35.057h0a34.933,34.933,0,0,0-11.163,1.829h0c-25.227,3.539-29.836-31.87-35.428-37.237h0C133.988.984,102.978.015,81.389,0h0" transform="translate(0.373 0.671)"/><g class="g"><path class="i" d="M1.029,3.07H8.716a.713.713,0,0,0,.719-.864L9.024.543A.732.732,0,0,0,8.3,0H.738A.714.714,0,0,0,.01.818L.3,2.483a.727.727,0,0,0,.728.588" transform="translate(87.498 133.586)"/></g><path class="a" d="M80.331,0c-3.795,0-7.274.03-10.269.03h0A70.088,70.088,0,0,0,0,70.145H0a70.1,70.1,0,0,0,35.137,60.8h0l-.685.107s34.789,18.029,61.5,41.033h0l-.219-.645a52.253,52.253,0,0,0,31.077,10.193h0a52.525,52.525,0,0,0,46.678-28.446h0C190.159,128.1,212.88,110.5,212.88,110.5h0l-.057-.111A35,35,0,0,0,226.3,82.766h0a35.044,35.044,0,0,0-35.031-35.057h0a34.933,34.933,0,0,0-11.163,1.829h0c-25.227,3.539-29.836-31.87-35.428-37.237h0C133.988.984,102.978.015,81.389,0h0" transform="translate(0.373 0.671)"/><g class="g"><path class="i" d="M.89,3.07H8.6a.715.715,0,0,0,.73-.811L9.053.6A.727.727,0,0,0,8.323,0H.738A.718.718,0,0,0,0,.764L.154,2.428A.725.725,0,0,0,.89,3.07" transform="translate(76.983 133.586)"/></g><path class="a" d="M80.331,0c-3.795,0-7.274.03-10.269.03h0A70.088,70.088,0,0,0,0,70.145H0a70.1,70.1,0,0,0,35.137,60.8h0l-.685.107s34.789,18.029,61.5,41.033h0l-.219-.645a52.253,52.253,0,0,0,31.077,10.193h0a52.525,52.525,0,0,0,46.678-28.446h0C190.159,128.1,212.88,110.5,212.88,110.5h0l-.057-.111A35,35,0,0,0,226.3,82.766h0a35.044,35.044,0,0,0-35.031-35.057h0a34.933,34.933,0,0,0-11.163,1.829h0c-25.227,3.539-29.836-31.87-35.428-37.237h0C133.988.984,102.978.015,81.389,0h0" transform="translate(0.373 0.671)"/><g class="g"><path class="i" d="M.749,3.07H8.465A.718.718,0,0,0,9.2,2.314L9.069.65A.724.724,0,0,0,8.332,0H.738A.72.72,0,0,0,0,.707L.011,2.372a.722.722,0,0,0,.738.7" transform="translate(66.442 133.586)"/></g><path class="a" d="M80.331,0c-3.795,0-7.274.03-10.269.03h0A70.088,70.088,0,0,0,0,70.145H0a70.1,70.1,0,0,0,35.137,60.8h0l-.685.107s34.789,18.029,61.5,41.033h0l-.219-.645a52.253,52.253,0,0,0,31.077,10.193h0a52.525,52.525,0,0,0,46.678-28.446h0C190.159,128.1,212.88,110.5,212.88,110.5h0l-.057-.111A35,35,0,0,0,226.3,82.766h0a35.044,35.044,0,0,0-35.031-35.057h0a34.933,34.933,0,0,0-11.163,1.829h0c-25.227,3.539-29.836-31.87-35.428-37.237h0C133.988.984,102.978.015,81.389,0h0" transform="translate(0.373 0.671)"/><g class="g"><path class="i" d="M.738,3.07H8.454a.722.722,0,0,0,.738-.7L9.2.707A.721.721,0,0,0,8.462,0H.867A.725.725,0,0,0,.131.651L0,2.316a.718.718,0,0,0,.736.754" transform="translate(55.766 133.586)"/></g><path class="a" d="M80.331,0c-3.795,0-7.274.03-10.269.03h0A70.088,70.088,0,0,0,0,70.145H0a70.1,70.1,0,0,0,35.137,60.8h0l-.685.107s34.789,18.029,61.5,41.033h0l-.219-.645a52.253,52.253,0,0,0,31.077,10.193h0a52.525,52.525,0,0,0,46.678-28.446h0C190.159,128.1,212.88,110.5,212.88,110.5h0l-.057-.111A35,35,0,0,0,226.3,82.766h0a35.044,35.044,0,0,0-35.031-35.057h0a34.933,34.933,0,0,0-11.163,1.829h0c-25.227,3.539-29.836-31.87-35.428-37.237h0C133.988.984,102.978.015,81.389,0h0" transform="translate(0.373 0.671)"/><g class="g"><path class="i" d="M.739,3.07H8.445a.724.724,0,0,0,.736-.644L9.328.761A.718.718,0,0,0,8.591,0H1.006A.727.727,0,0,0,.276.6L.009,2.261a.715.715,0,0,0,.73.809" transform="translate(45.231 133.586)"/></g><path class="a" d="M80.331,0c-3.795,0-7.274.03-10.269.03h0A70.088,70.088,0,0,0,0,70.145H0a70.1,70.1,0,0,0,35.137,60.8h0l-.685.107s34.789,18.029,61.5,41.033h0l-.219-.645a52.253,52.253,0,0,0,31.077,10.193h0a52.525,52.525,0,0,0,46.678-28.446h0C190.159,128.1,212.88,110.5,212.88,110.5h0l-.057-.111A35,35,0,0,0,226.3,82.766h0a35.044,35.044,0,0,0-35.031-35.057h0a34.933,34.933,0,0,0-11.163,1.829h0c-25.227,3.539-29.836-31.87-35.428-37.237h0C133.988.984,102.978.015,81.389,0h0" transform="translate(0.373 0.671)"/><g class="g"><path class="i" d="M.739,3.07H8.427a.728.728,0,0,0,.729-.589L9.442.817A.716.716,0,0,0,8.714,0H1.146A.731.731,0,0,0,.428.543L.02,2.209a.711.711,0,0,0,.719.862" transform="translate(34.555 133.586)"/></g><path class="a" d="M80.331,0c-3.795,0-7.274.03-10.269.03h0A70.088,70.088,0,0,0,0,70.145H0a70.1,70.1,0,0,0,35.137,60.8h0l-.685.107s34.789,18.029,61.5,41.033h0l-.219-.645a52.253,52.253,0,0,0,31.077,10.193h0a52.525,52.525,0,0,0,46.678-28.446h0C190.159,128.1,212.88,110.5,212.88,110.5h0l-.057-.111A35,35,0,0,0,226.3,82.766h0a35.044,35.044,0,0,0-35.031-35.057h0a34.933,34.933,0,0,0-11.163,1.829h0c-25.227,3.539-29.836-31.87-35.428-37.237h0C133.988.984,102.978.015,81.389,0h0" transform="translate(0.373 0.671)"/><g class="g"><path class="j" d="M.739,3.07H8.4a.732.732,0,0,0,.717-.536L9.545.87A.712.712,0,0,0,8.828,0H1.289a.735.735,0,0,0-.7.492L.035,2.157a.709.709,0,0,0,.7.914" transform="translate(23.714 133.586)"/></g><path class="a" d="M80.331,0c-3.795,0-7.274.03-10.269.03h0A70.088,70.088,0,0,0,0,70.145H0a70.1,70.1,0,0,0,35.137,60.8h0l-.685.107s34.789,18.029,61.5,41.033h0l-.219-.645a52.253,52.253,0,0,0,31.077,10.193h0a52.525,52.525,0,0,0,46.678-28.446h0C190.159,128.1,212.88,110.5,212.88,110.5h0l-.057-.111A35,35,0,0,0,226.3,82.766h0a35.044,35.044,0,0,0-35.031-35.057h0a34.933,34.933,0,0,0-11.163,1.829h0c-25.227,3.539-29.836-31.87-35.428-37.237h0C133.988.984,102.978.015,81.389,0h0" transform="translate(0.373 0.671)"/><g class="g"><path class="j" d="M.739,3.07H8.364a.736.736,0,0,0,.7-.486L9.633.92A.709.709,0,0,0,8.93,0h-7.5A.737.737,0,0,0,.74.446L.052,2.11a.707.707,0,0,0,.687.96" transform="translate(13.192 133.586)"/></g><path class="a" d="M80.331,0c-3.795,0-7.274.03-10.269.03h0A70.088,70.088,0,0,0,0,70.145H0a70.1,70.1,0,0,0,35.137,60.8h0l-.685.107s34.789,18.029,61.5,41.033h0l-.219-.645a52.253,52.253,0,0,0,31.077,10.193h0a52.525,52.525,0,0,0,46.678-28.446h0C190.159,128.1,212.88,110.5,212.88,110.5h0l-.057-.111A35,35,0,0,0,226.3,82.766h0a35.044,35.044,0,0,0-35.031-35.057h0a34.933,34.933,0,0,0-11.163,1.829h0c-25.227,3.539-29.836-31.87-35.428-37.237h0C133.988.984,102.978.015,81.389,0h0" transform="translate(0.373 0.671)"/><g class="g"><path class="j" d="M.739,3.07h20.92a.739.739,0,0,0,.685-.439l.71-1.665A.708.708,0,0,0,22.369,0H1.745A.747.747,0,0,0,1.1.353L.1,2.017A.7.7,0,0,0,.739,3.07" transform="translate(-10.919 133.586)"/></g><path class="a" d="M80.331,0c-3.795,0-7.274.03-10.269.03h0A70.088,70.088,0,0,0,0,70.145H0a70.1,70.1,0,0,0,35.137,60.8h0l-.685.107s34.789,18.029,61.5,41.033h0l-.219-.645a52.253,52.253,0,0,0,31.077,10.193h0a52.525,52.525,0,0,0,46.678-28.446h0C190.159,128.1,212.88,110.5,212.88,110.5h0l-.057-.111A35,35,0,0,0,226.3,82.766h0a35.044,35.044,0,0,0-35.031-35.057h0a34.933,34.933,0,0,0-11.163,1.829h0c-25.227,3.539-29.836-31.87-35.428-37.237h0C133.988.984,102.978.015,81.389,0h0" transform="translate(0.373 0.671)"/><g class="g"><path class="j" d="M.734,2.9H7.982a.735.735,0,0,0,.67-.417l.7-1.5A.706.706,0,0,0,8.678,0H1.538A.737.737,0,0,0,.886.381l-.8,1.5A.7.7,0,0,0,.734,2.9" transform="translate(-0.525 129.458)"/></g><path class="a" d="M80.331,0c-3.795,0-7.274.03-10.269.03h0A70.088,70.088,0,0,0,0,70.145H0a70.1,70.1,0,0,0,35.137,60.8h0l-.685.107s34.789,18.029,61.5,41.033h0l-.219-.645a52.253,52.253,0,0,0,31.077,10.193h0a52.525,52.525,0,0,0,46.678-28.446h0C190.159,128.1,212.88,110.5,212.88,110.5h0l-.057-.111A35,35,0,0,0,226.3,82.766h0a35.044,35.044,0,0,0-35.031-35.057h0a34.933,34.933,0,0,0-11.163,1.829h0c-25.227,3.539-29.836-31.87-35.428-37.237h0C133.988.984,102.978.015,81.389,0h0" transform="translate(0.373 0.671)"/><g class="g"><path class="j" d="M.725,2.713H7.45a.725.725,0,0,0,.675-.469L8.6.994A.731.731,0,0,0,7.925,0H1.286a.723.723,0,0,0-.66.429L.066,1.679A.731.731,0,0,0,.725,2.713" transform="translate(11.089 121.626)"/></g><path class="a" d="M80.331,0c-3.795,0-7.274.03-10.269.03h0A70.088,70.088,0,0,0,0,70.145H0a70.1,70.1,0,0,0,35.137,60.8h0l-.685.107s34.789,18.029,61.5,41.033h0l-.219-.645a52.253,52.253,0,0,0,31.077,10.193h0a52.525,52.525,0,0,0,46.678-28.446h0C190.159,128.1,212.88,110.5,212.88,110.5h0l-.057-.111A35,35,0,0,0,226.3,82.766h0a35.044,35.044,0,0,0-35.031-35.057h0a34.933,34.933,0,0,0-11.163,1.829h0c-25.227,3.539-29.836-31.87-35.428-37.237h0C133.988.984,102.978.015,81.389,0h0" transform="translate(0.373 0.671)"/><g class="g"><path class="j" d="M4.469,0H10.8c.568,0,.952.154.855.341L10.585,2.393c-.1.195-.661.355-1.241.355H8.329a.729.729,0,0,0-.642.376L6.259,5.752c-.111.206-.693.376-1.291.376H.886c-.6,0-.986-.17-.864-.376L3.234.341A1.776,1.776,0,0,1,4.469,0" transform="translate(-7.844 125.487)"/></g><path class="a" d="M80.331,0c-3.795,0-7.274.03-10.269.03h0A70.088,70.088,0,0,0,0,70.145H0a70.1,70.1,0,0,0,35.137,60.8h0l-.685.107s34.789,18.029,61.5,41.033h0l-.219-.645a52.253,52.253,0,0,0,31.077,10.193h0a52.525,52.525,0,0,0,46.678-28.446h0C190.159,128.1,212.88,110.5,212.88,110.5h0l-.057-.111A35,35,0,0,0,226.3,82.766h0a35.044,35.044,0,0,0-35.031-35.057h0a34.933,34.933,0,0,0-11.163,1.829h0c-25.227,3.539-29.836-31.87-35.428-37.237h0C133.988.984,102.978.015,81.389,0h0" transform="translate(0.373 0.671)"/><g class="g"><path class="j" d="M.725,2.713H12.184a.723.723,0,0,0,.657-.423l.576-1.249A.731.731,0,0,0,12.76,0H1.436A.725.725,0,0,0,.808.367L.1,1.617a.731.731,0,0,0,.628,1.1" transform="translate(-3.435 121.626)"/></g><path class="a" d="M80.331,0c-3.795,0-7.274.03-10.269.03h0A70.088,70.088,0,0,0,0,70.145H0a70.1,70.1,0,0,0,35.137,60.8h0l-.685.107s34.789,18.029,61.5,41.033h0l-.219-.645a52.253,52.253,0,0,0,31.077,10.193h0a52.525,52.525,0,0,0,46.678-28.446h0C190.159,128.1,212.88,110.5,212.88,110.5h0l-.057-.111A35,35,0,0,0,226.3,82.766h0a35.044,35.044,0,0,0-35.031-35.057h0a34.933,34.933,0,0,0-11.163,1.829h0c-25.227,3.539-29.836-31.87-35.428-37.237h0C133.988.984,102.978.015,81.389,0h0" transform="translate(0.373 0.671)"/><g class="g"><path class="k" d="M7.385,0H137.039a7.342,7.342,0,0,1,7.385,7.3V90.185a3.241,3.241,0,0,1-3.24,3.242H3.24A3.241,3.241,0,0,1,0,90.185V7.3A7.342,7.342,0,0,1,7.385,0" transform="translate(-6.501 24.487)"/></g><path class="a" d="M80.331,0c-3.795,0-7.274.03-10.269.03h0A70.088,70.088,0,0,0,0,70.145H0a70.1,70.1,0,0,0,35.137,60.8h0l-.685.107s34.789,18.029,61.5,41.033h0l-.219-.645a52.253,52.253,0,0,0,31.077,10.193h0a52.525,52.525,0,0,0,46.678-28.446h0C190.159,128.1,212.88,110.5,212.88,110.5h0l-.057-.111A35,35,0,0,0,226.3,82.766h0a35.044,35.044,0,0,0-35.031-35.057h0a34.933,34.933,0,0,0-11.163,1.829h0c-25.227,3.539-29.836-31.87-35.428-37.237h0C133.988.984,102.978.015,81.389,0H80.331Z" transform="translate(0.373 0.671)"/><g class="d"><path class="l" d="M0,82.649H132.155V0H0Z" transform="translate(-0.367 31.756)"/></g></g><g transform="translate(0 0.03)"><path class="a" d="M80.331,0c-3.795,0-7.274.03-10.269.03h0A70.088,70.088,0,0,0,0,70.145H0a70.1,70.1,0,0,0,35.137,60.8h0l-.685.107s34.789,18.029,61.5,41.033h0l-.219-.645a52.253,52.253,0,0,0,31.077,10.193h0a52.525,52.525,0,0,0,46.678-28.446h0C190.159,128.1,212.88,110.5,212.88,110.5h0l-.057-.111A35,35,0,0,0,226.3,82.766h0a35.044,35.044,0,0,0-35.031-35.057h0a34.933,34.933,0,0,0-11.163,1.829h0c-25.227,3.539-29.836-31.87-35.428-37.237h0C133.988.984,102.978.015,81.389,0H80.331Z" transform="translate(0.373 0.671)"/><g class="d"><path class="m" d="M0,39.264H43.334V0H0Z" transform="translate(102.417 17.879)"/></g><path class="a" d="M80.331,0c-3.795,0-7.274.03-10.269.03h0A70.088,70.088,0,0,0,0,70.145H0a70.1,70.1,0,0,0,35.137,60.8h0l-.685.107s34.789,18.029,61.5,41.033h0l-.219-.645a52.253,52.253,0,0,0,31.077,10.193h0a52.525,52.525,0,0,0,46.678-28.446h0C190.159,128.1,212.88,110.5,212.88,110.5h0l-.057-.111A35,35,0,0,0,226.3,82.766h0a35.044,35.044,0,0,0-35.031-35.057h0a34.933,34.933,0,0,0-11.163,1.829h0c-25.227,3.539-29.836-31.87-35.428-37.237h0C133.988.984,102.978.015,81.389,0H80.331Z" transform="translate(0.373 0.671)"/><g class="d"><path class="n" d="M0,25.542H26.389V0H0Z" transform="translate(126.368 64.618)"/></g><path class="a" d="M80.331,0c-3.795,0-7.274.03-10.269.03A70.133,70.133,0,0,0,35.137,130.94l-.685.107s34.789,18.029,61.5,41.033l-.219-.645a52.5,52.5,0,0,0,77.755-18.252C190.159,128.1,212.88,110.5,212.88,110.5l-.057-.111a35.044,35.044,0,0,0-32.718-60.853c-25.227,3.539-29.836-31.87-35.428-37.237C133.988.984,102.978.015,81.389,0Z" transform="translate(0.373 0.671)"/><g class="o"><path class="p" d="M0,27.583H45.446V0H0Z" transform="translate(-3.387 64.618)"/><path class="q" d="M0,17.4H22.657V0H0Z" transform="translate(99.51 64.618)"/><path class="r" d="M0,23.138H22.657V0H0Z" transform="translate(99.51 85.891)"/><path class="s" d="M0,22.437H35.031V0H0Z" transform="translate(60.276 37.511)"/><path class="q" d="M0,22.437H56.311V0H0Z" transform="translate(-0.678 37.511)"/><path class="t" d="M0,0V.7H.7" transform="translate(47.314 108.678)"/><path class="u" d="M0,.351H4.624" transform="translate(49.336 109.029)"/><path class="v" d="M0,.351H38.974" transform="translate(54.621 109.029)"/><path class="t" d="M0,.7H.7V0" transform="translate(94.255 108.678)"/><path class="w" d="M.35,5.163V0" transform="translate(94.606 102.041)"/><path class="x" d="M.35,34.664V0" transform="translate(94.606 66.638)"/><path class="t" d="M.7.7V0H0" transform="translate(94.255 65.199)"/><path class="u" d="M4.624.351H0" transform="translate(88.31 64.849)"/><path class="v" d="M38.974.351H0" transform="translate(48.676 64.849)"/><path class="t" d="M.7,0H0V.7" transform="translate(47.314 65.199)"/><path class="w" d="M.35,0V5.163" transform="translate(46.964 67.376)"/><path class="x" d="M.35,0V34.664" transform="translate(46.964 73.276)"/></g></g><path class="y" d="M0,32.954H32.929V0H0Z" transform="translate(167.47 40.346)"/><path class="q" d="M0,11.218H11.21V0H0Z" transform="translate(163.967 87.323)"/></g></svg>