<svg xmlns="http://www.w3.org/2000/svg" xmlns:xlink="http://www.w3.org/1999/xlink" width="237.468" height="236.887" viewBox="0 0 237.468 236.887"><defs><style>.a{fill:url(#a);}.b{fill:#62a446;}.c,.r{fill:none;}.d{clip-path:url(#b);}.e{fill:url(#c);}.f{fill:#358911;}.g{clip-path:url(#d);}.h{fill:#b06a52;}.i{fill:#804231;}.j{fill:#9c5740;}.k{fill:#bd9c5d;}.l{clip-path:url(#e);}.m{fill:#b18a40;}.n{clip-path:url(#f);}.o{fill:#f3b744;opacity:0.747;}.p{fill:#99f871;opacity:0.854;}.q{fill:#ffd840;opacity:0.849;}.r{stroke:#0058b0;stroke-miterlimit:10;stroke-width:0.72px;}.s{fill:#fff;}.t{fill:#ffb417;}.u{clip-path:url(#j);}.v{fill:#e29900;}.w{clip-path:url(#k);}.x{fill:#97f96e;opacity:0.803;}</style><linearGradient id="a" x1="0.5" x2="0.5" y2="1" gradientUnits="objectBoundingBox"><stop offset="0" stop-color="#e4fdd9"/><stop offset="1" stop-color="#f8fff6"/></linearGradient><clipPath id="b"><path class="a" d="M113.7,3.933l.2-.3q-1.517.767-3.054,1.516h0c-.723.332-1.442.676-2.147,1.038h0C82.792,18.548,54.482,26.926,54.482,26.926h0l.72.188C23.421,35.355,0,63.646,0,97.284H0c0,40.1,33.274,72.6,74.321,72.6h0a75.063,75.063,0,0,0,47.13-16.48h0l-.012.038c24.223-16.769,60.705-15.792,71.761-15.05h0c.958.114,1.927.195,2.907.235h0c.25.025.387.04.387.04h0l.011-.03c.4.012.791.03,1.19.03h0c20.524,0,37.161-16.252,37.161-36.3h0A36.054,36.054,0,0,0,218.2,72.1h0c-21.112-15.208-32.907-40.659-32.907-40.659h0l-.153.217A55.828,55.828,0,0,0,134.522,0h0A56.685,56.685,0,0,0,113.7,3.933" transform="translate(0.448 0.42)"/></clipPath><linearGradient id="c" x1="0.177" y1="0.991" x2="0.783" y2="0.153" xlink:href="#a"/><clipPath id="d"><path class="b" d="M40.5,14.817c-8.981,14.713-9.2,36.79-23.143,36.871h0C2.234,51.777-2.182,63.544,1.893,71.21h0a8.835,8.835,0,0,1-.024,8.618h0c-2.243,3.849-3.6,9.677,2.755,15.5h0c10.911,10,28.7,12.41,45.07.589h0C66.06,84.1,62.421,62.307,62.421,62.307h0s12.729,52.738,41.826,43.645h0C125.179,99.411,123.994,84.4,121.68,76.49h0a2.747,2.747,0,0,1,3.2-3.451h0c4.829,1,11.643.813,16.648-5.276h0c16.027-19.5-10-31.825-10-31.825h0c-.856-11.56-9.409-9.555-17.58-7.55h0c-6.758,1.658-13.255,3.315-14.92-2.7h0C94.027,7.618,80.952,0,68.037,0h0C57.046,0,46.171,5.521,40.5,14.817" transform="translate(0.01 0.027)"/></clipPath><clipPath id="e"><path class="c" d="M113.7,3.933l.2-.3q-1.517.767-3.054,1.516h0c-.723.332-1.442.676-2.147,1.038h0C82.792,18.548,54.482,26.926,54.482,26.926h0l.72.188C23.421,35.355,0,63.646,0,97.284H0c0,40.1,33.274,72.6,74.321,72.6h0a75.063,75.063,0,0,0,47.13-16.48h0l-.012.038c24.223-16.769,60.705-15.792,71.761-15.05h0c.958.114,1.927.195,2.907.235h0c.25.025.387.04.387.04h0l.011-.03c.4.012.791.03,1.19.03h0c20.524,0,37.161-16.252,37.161-36.3h0A36.054,36.054,0,0,0,218.2,72.1h0c-21.112-15.208-32.907-40.659-32.907-40.659h0l-.153.217A55.828,55.828,0,0,0,134.522,0h0A56.685,56.685,0,0,0,113.7,3.933Z" transform="translate(0.448 0.42)"/></clipPath><clipPath id="f"><path class="c" d="M113.7,3.933l.2-.3q-1.517.767-3.054,1.516h0c-.723.332-1.442.676-2.147,1.038h0C82.792,18.548,54.482,26.926,54.482,26.926h0l.72.188C23.421,35.355,0,63.646,0,97.284H0c0,40.1,33.274,72.6,74.321,72.6h0a75.063,75.063,0,0,0,47.13-16.48h0l-.012.038c24.223-16.769,60.705-15.792,71.761-15.05h0c.958.114,1.927.195,2.907.235h0c.25.025.387.04.387.04h0l.011-.03c.4.012.791.03,1.19.03h0c20.524,0,37.161-16.252,37.161-36.3h0A36.054,36.054,0,0,0,218.2,72.1h0c-21.112-15.208-32.907-40.659-32.907-40.659h0l-.153.217A55.828,55.828,0,0,0,134.522,0h0A56.685,56.685,0,0,0,113.7,3.933" transform="translate(0.448 0.42)"/></clipPath><clipPath id="j"><path class="c" d="M70.45,131.335h0a26.084,26.084,0,0,1-9.109-1.31c-7.839-3.015-17.389-3.648-24.019-3.648-5.4,0-9.254.42-9.292.425,0-.014.055-.151.146-.392,3.275-8.688,5.76-15.176,7-18.268,1.6-4.006.707-16.061-2-26.871-1.428-5.71-3.585-16.48-3.606-16.588L12.261,96.416a43.37,43.37,0,0,0,.09-7.122c-.247-3.7-1.088-8.974-3.7-13.072A45.158,45.158,0,0,0,0,66.124l.029-.085C1.1,62.954,10.634,35.572,15.145,24.295,21.619,8.11,29.19,6.428,38.775,4.3a15.7,15.7,0,0,0,4.232,3.872A25.838,25.838,0,0,0,57.37,12.044c.67,0,1.36-.019,2.049-.058A27.3,27.3,0,0,0,75.7,5.68,23.245,23.245,0,0,0,80.683,0L80.7,0c.558.072,3.529.468,7.275,1.254A60.031,60.031,0,0,1,101.1,5.373c3.1,1.519,6.532,4.635,10.213,9.26a114.847,114.847,0,0,1,9.235,13.877c5.42,9.378,9.231,18.055,9.269,18.141-.029.014-2.922,1.531-5.048,6.491-2.367,5.525-.982,18.912-.967,19.047L109.625,59.633a4.331,4.331,0,0,0-2.267-.39c-1.988,0-4.168.425-4.224,1.112a38.63,38.63,0,0,0,.568,6.779,14.745,14.745,0,0,1-.071-2.356h0a5.43,5.43,0,0,1,.224,1.346,15.508,15.508,0,0,1,.251,2.986.007.007,0,0,1-.005,0,10.158,10.158,0,0,1-.4-1.979,175.027,175.027,0,0,0,3.847,26.356c4.246,16.985,6.426,28.9,6.448,29.014l-.024.009c-.712.234-7.192,2.349-15.354,4.407-5.083,1.282-9.85,2.3-14.17,3.036A85.952,85.952,0,0,1,70.45,131.335Z" transform="translate(0.662 0.646)"/></clipPath><clipPath id="k"><path class="c" d="M0,0H47.832V49.585H0Z" transform="translate(0.716 0.392)"/></clipPath></defs><g transform="translate(0 -0.721)"><g transform="translate(2.164 25.572)"><path class="c" d="M113.7,3.933l.2-.3q-1.517.767-3.054,1.516h0c-.723.332-1.442.676-2.147,1.038h0C82.792,18.548,54.482,26.926,54.482,26.926h0l.72.188C23.421,35.355,0,63.646,0,97.284H0c0,40.1,33.274,72.6,74.321,72.6h0a75.063,75.063,0,0,0,47.13-16.48h0l-.012.038c24.223-16.769,60.705-15.792,71.761-15.05h0c.958.114,1.927.195,2.907.235h0c.25.025.387.04.387.04h0l.011-.03c.4.012.791.03,1.19.03h0c20.524,0,37.161-16.252,37.161-36.3h0A36.054,36.054,0,0,0,218.2,72.1h0c-21.112-15.208-32.907-40.659-32.907-40.659h0l-.153.217A55.828,55.828,0,0,0,134.522,0h0A56.685,56.685,0,0,0,113.7,3.933" transform="translate(0.448 0.42)"/><g class="d"><path class="e" d="M113.7,3.933l.2-.3q-1.517.767-3.054,1.516h0c-.723.332-1.442.676-2.147,1.038h0C82.792,18.548,54.482,26.926,54.482,26.926h0l.72.188C23.421,35.355,0,63.646,0,97.284H0c0,40.1,33.274,72.6,74.321,72.6h0a75.063,75.063,0,0,0,47.13-16.48h0l-.012.038c24.223-16.769,60.705-15.792,71.761-15.05h0c.958.114,1.927.195,2.907.235h0c.25.025.387.04.387.04h0l.011-.03c.4.012.791.03,1.19.03h0c20.524,0,37.161-16.252,37.161-36.3h0A36.054,36.054,0,0,0,218.2,72.1h0c-21.112-15.208-32.907-40.659-32.907-40.659h0l-.153.217A55.828,55.828,0,0,0,134.522,0h0A56.685,56.685,0,0,0,113.7,3.933" transform="translate(0.448 0.42)"/></g></g><path class="f" d="M131.525,35.938s26.03,12.325,10,31.825c-5,6.088-11.818,6.278-16.647,5.276a2.747,2.747,0,0,0-3.2,3.452c2.314,7.909,3.5,22.921-17.434,29.462-29.1,9.093-41.826-43.644-41.826-43.644S66.06,84.1,49.694,95.923s-34.158,9.413-45.069-.59c-6.357-5.827-5-11.656-2.755-15.5a8.835,8.835,0,0,0,.024-8.618c-4.076-7.666.34-19.433,15.461-19.521C31.3,51.608,31.516,29.53,40.5,14.817,52.837-5.4,89.772-7.76,99.025,25.687c3.677,13.291,30.937-10.869,32.5,10.251" transform="translate(70.689 19.829)"/><g transform="translate(70.679 19.802)"><path class="c" d="M40.5,14.817c-8.981,14.713-9.2,36.79-23.143,36.871h0C2.234,51.777-2.182,63.544,1.893,71.21h0a8.835,8.835,0,0,1-.024,8.618h0c-2.243,3.849-3.6,9.677,2.755,15.5h0c10.911,10,28.7,12.41,45.07.589h0C66.06,84.1,62.421,62.307,62.421,62.307h0s12.729,52.738,41.826,43.645h0C125.179,99.411,123.994,84.4,121.68,76.49h0a2.747,2.747,0,0,1,3.2-3.451h0c4.829,1,11.643.813,16.648-5.276h0c16.027-19.5-10-31.825-10-31.825h0c-.856-11.56-9.409-9.555-17.58-7.55h0c-6.758,1.658-13.255,3.315-14.92-2.7h0C94.027,7.618,80.952,0,68.037,0h0C57.046,0,46.171,5.521,40.5,14.817" transform="translate(0.01 0.027)"/><g class="g"><path class="b" d="M39.424.048c31.868,3.187,72.121,30.291,80.055,44.715s7.212,28.127-2.885,37.5-36.061,31.012-36.061,31.012S35.818,106.787,31.49,95.969s0-52.648,0-52.648C2.642,74.333-6.734,32.5,4.806,10.866,6.783,7.158,32.122-.683,39.424.048" transform="translate(33.36 -3.234)"/></g></g><path class="h" d="M29.536,19.468A15.616,15.616,0,0,1,31.8,14.181C34.824,9.649,35.579,2.1,35.579,1.339c0-2.136-2.266.756-4.532,6.8-1.352,3.606-3.777,6.042-6.487,9.783a.521.521,0,0,1-.944-.35c.1-1.022.731-6.928.633-8.678-.755-13.6-2.006-7.835-2.266-6.8a44.842,44.842,0,0,0-.756,8.309c-3,6.342-3,6.342-4.446,9.948-.836,2.089-1.639,1.814-3.606.721C6.684,17.467.914,18.188.193,18.91c-1.51,1.51,6.231,1.229,10.1,10.1a75.864,75.864,0,0,1,5.77,24.521s6.491-.721,11.539,7.933c0,0-4.105-14.8-3.35-20.088S30.174,31.818,34.824,24c4.314-7.255,5.035-10.14,5.035-10.14-1.247-.625-4.373,5.219-6.564,6.636a.131.131,0,0,1-.17-.195,59.831,59.831,0,0,0,4.72-6.122c.755-1.511,1.511-9.063,1.511-9.063-1.511-.756-2.266,4.532-3.777,6.8" transform="translate(186.542 63.337)"/><g transform="translate(101.691 34.227)"><path class="i" d="M50.506,36.449c-9.671-3.224-12.9-7.522-13.97-13.97S38.262,0,38.262,0L0,12.807s13.97,8.52,13.97,16.119c0,10.746-8.6,10.746-8.6,10.746S8.6,63.313,30.088,61.165,50.506,36.449,50.506,36.449" transform="translate(4.678 37.21)"/><path class="j" d="M45.353,34.3A28.661,28.661,0,0,1,30.309,53.642c-12.9,6.448-25.253.537-28.477-4.836s-3.223-30.088,8.6-40.834S37.814-2.165,43.452,6.856c9.093,14.548,1.9,27.444,1.9,27.444" transform="translate(0.696 0.136)"/><path class="k" d="M9.562.437c6.355-2.469,9.578,6.128,4.205,10.427s-8.6,7.522-12.9,5.373S9.562.437,9.562.437" transform="translate(36.58 28.945)"/></g><g transform="translate(2.164 25.572)"><path class="c" d="M113.7,3.933l.2-.3q-1.517.767-3.054,1.516h0c-.723.332-1.442.676-2.147,1.038h0C82.792,18.548,54.482,26.926,54.482,26.926h0l.72.188C23.421,35.355,0,63.646,0,97.284H0c0,40.1,33.274,72.6,74.321,72.6h0a75.063,75.063,0,0,0,47.13-16.48h0l-.012.038c24.223-16.769,60.705-15.792,71.761-15.05h0c.958.114,1.927.195,2.907.235h0c.25.025.387.04.387.04h0l.011-.03c.4.012.791.03,1.19.03h0c20.524,0,37.161-16.252,37.161-36.3h0A36.054,36.054,0,0,0,218.2,72.1h0c-21.112-15.208-32.907-40.659-32.907-40.659h0l-.153.217A55.828,55.828,0,0,0,134.522,0h0A56.685,56.685,0,0,0,113.7,3.933Z" transform="translate(0.448 0.42)"/><g class="l"><path class="m" d="M29.014,22.566C25.79,29.014,16.119,46.207,13.97,49.431S0,30.089,0,30.089L13.97,0Z" transform="translate(66.057 127.983)"/></g><path class="c" d="M113.7,3.933l.2-.3q-1.517.767-3.054,1.516h0c-.723.332-1.442.676-2.147,1.038h0C82.792,18.548,54.482,26.926,54.482,26.926h0l.72.188C23.421,35.355,0,63.646,0,97.284H0c0,40.1,33.274,72.6,74.321,72.6h0a75.063,75.063,0,0,0,47.13-16.48h0l-.012.038c24.223-16.769,60.705-15.792,71.761-15.05h0c.958.114,1.927.195,2.907.235h0c.25.025.387.04.387.04h0l.011-.03c.4.012.791.03,1.19.03h0c20.524,0,37.161-16.252,37.161-36.3h0A36.054,36.054,0,0,0,218.2,72.1h0c-21.112-15.208-32.907-40.659-32.907-40.659h0l-.153.217A55.828,55.828,0,0,0,134.522,0h0A56.685,56.685,0,0,0,113.7,3.933" transform="translate(0.448 0.42)"/><g class="n"><path class="j" d="M47.1,66.929C43.105,65.333,31.5,56.91,25.6,48.662A260.1,260.1,0,0,1,0,3.344L8.361,0S19.436,16.644,47.376,38.136c7.853,6.041,11.893,20.238,10.818,26.685-.707,4.24-5.724,4.257-11.1,2.108" transform="translate(25.408 109.41)"/></g><path class="c" d="M113.7,3.933l.2-.3q-1.517.767-3.054,1.516h0c-.723.332-1.442.676-2.147,1.038h0C82.792,18.548,54.482,26.926,54.482,26.926h0l.72.188C23.421,35.355,0,63.646,0,97.284H0c0,40.1,33.274,72.6,74.321,72.6h0a75.063,75.063,0,0,0,47.13-16.48h0l-.012.038c24.223-16.769,60.705-15.792,71.761-15.05h0c.958.114,1.927.195,2.907.235h0c.25.025.387.04.387.04h0l.011-.03c.4.012.791.03,1.19.03h0c20.524,0,37.161-16.252,37.161-36.3h0A36.054,36.054,0,0,0,218.2,72.1h0c-21.112-15.208-32.907-40.659-32.907-40.659h0l-.153.217A55.828,55.828,0,0,0,134.522,0h0A56.685,56.685,0,0,0,113.7,3.933Z" transform="translate(0.448 0.42)"/><g class="l"><path class="j" d="M0,22.567C16.119,36.536,26.864,53.73,32.237,58.028c4.2,3.357,13.97-17.194,13.97-17.194s-11.82-12.9-19.343-22.566S12.9,0,12.9,0Z" transform="translate(172.442 106.491)"/></g><path class="c" d="M113.7,3.933l.2-.3q-1.517.767-3.054,1.516h0c-.723.332-1.442.676-2.147,1.038h0C82.792,18.548,54.482,26.926,54.482,26.926h0l.72.188C23.421,35.355,0,63.646,0,97.284H0c0,40.1,33.274,72.6,74.321,72.6h0a75.063,75.063,0,0,0,47.13-16.48h0l-.012.038c24.223-16.769,60.705-15.792,71.761-15.05h0c.958.114,1.927.195,2.907.235h0c.25.025.387.04.387.04h0l.011-.03c.4.012.791.03,1.19.03h0c20.524,0,37.161-16.252,37.161-36.3h0A36.054,36.054,0,0,0,218.2,72.1h0c-21.112-15.208-32.907-40.659-32.907-40.659h0l-.153.217A55.828,55.828,0,0,0,134.522,0h0A56.685,56.685,0,0,0,113.7,3.933" transform="translate(0.448 0.42)"/><g class="n"><path class="j" d="M2.894,0l7.732,2.029S25.82,54.252,25.051,65.777s-6.448,22.567-8.6,22.567c-4.312,0-8.6-2.149-16.119-12.9-2.162-3.089,6.968-22.3,4-52.369C3.49,14.5,2.894,0,2.894,0" transform="translate(196.822 80.474)"/></g></g><path class="b" d="M0,5.017c12.982,12.261,3.4,27.593,13.429,30.1a17.346,17.346,0,0,0,15.886-4.181L19.282,2.508.05,0Z" transform="translate(131.202 29.629)"/><path class="h" d="M24.132,42.442c-1.418-7.09,1.959-12.3,5.866-15.83C31.931,24.866,34.986,24.6,35.021,22a10.253,10.253,0,0,0-8.912,2.449c-1.676,1.689-2.331,2.529-4.037,3.294a1.262,1.262,0,0,1-1.706-.733C18.72,22.186,17.98,16.774,17.13,11.8,16.4,7.518,14.691,3.031,11.511.266A1.035,1.035,0,0,0,9.847,1.39c.875,2.4,1.417,4.432,2.22,7.44.8,2.989,1.555,6.464.862,9.48-.862.861-1.432-.553-1.724-.862a2.5,2.5,0,0,0-3.225-.739C6.533,17.276,6.9,20.034,6.9,21.758c0,2.586,1.723,3.447-3.109.316-.358-.232-.831.177-1.2.546-1.3,1.3-.848,2.1-.019,3.287a.566.566,0,0,1-.409.881c-1.3.141-1.735.16-2.157,1,0,1.724,8.336,13.4,14.651,17.238,5.311,3.229,10.343,1.724,9.481-2.586" transform="translate(11.799 92.986)"/><path class="j" d="M18.03,16.433c-5.77-1.442-6.491-7.212-10.1-10.818A18.389,18.389,0,0,0,0,1.287C1.442,2.73,6.491,4.893,8.655,9.942a77.259,77.259,0,0,1,5.77,24.521s6.491-.721,11.539,7.933c0,0-4.105-14.8-3.351-20.088s5.925-9.555,10.576-17.372C37.5-2.319,35.339.566,35.339.566,33.176,4.172,25.234,18.234,18.03,16.433" transform="translate(188.177 82.401)"/><g transform="translate(10.818 108.511)"><path class="j" d="M.577.389C2.606-.963,4.886,1.251,6.61,6.422c1.468,4.4,0,5.171-.862,4.31S-2.009,2.113.577.389" transform="translate(8.162 0.672)"/><path class="j" d="M.523.419C1.985-1.531,8.279,3.866,10,5.59S9.141,8.175,7.418,7.314-2.063,3.866.523.419" transform="translate(2.183 5.814)"/><path class="j" d="M.5.5C1.745-1.6,6.333,3.512,7.991,4.495s.614,2.4-1.843,1.6C2.771,4.984-1.466,3.816.5.5" transform="translate(0.662 9.752)"/></g><g transform="translate(0 15.475)"><g transform="translate(0 53.37)"><path class="o" d="M48.537,28.224,3.491,35.863,0,8.751,41.784,0Z" transform="translate(0 0.411)"/></g><path class="p" d="M26.365,11.608C26.365,4.49,20.3,0,13.182,0A13.226,13.226,0,0,0,0,12.985C0,20.1,6.851,27.348,13.969,27.348s12.4-8.622,12.4-15.74" transform="translate(31.995 0.594)"/><path class="q" d="M14.907,24.257,25.195,0,0,3.412Z" transform="translate(184.55 21.183)"/><path class="r" d="M10.208,4.446H7.079V1.317a1.317,1.317,0,0,0-2.634,0V4.446H1.317a1.317,1.317,0,0,0,0,2.634H4.446v3.129a1.317,1.317,0,1,0,2.634,0V7.079h3.129a1.317,1.317,0,1,0,0-2.634Z" transform="translate(168.764 2.555)"/><g transform="matrix(0.978, -0.208, 0.208, 0.978, 13.832, 68.41)"><path class="s" d="M6.279,0a6.279,6.279,0,1,0,6.279,6.279A6.279,6.279,0,0,0,6.279,0Zm0,11.511a5.232,5.232,0,1,1,5.232-5.232A5.232,5.232,0,0,1,6.279,11.511Z"/><path class="s" d="M18.616,10H17.57v1.046A1.57,1.57,0,0,0,16,12.616v1.57h3.139v.523a.523.523,0,0,1-.523.523H16v1.046h1.57v1.046h1.046V16.279a1.57,1.57,0,0,0,1.57-1.57v-1.57H17.046v-.523a.523.523,0,0,1,.523-.523h2.616V11.046h-1.57Z" transform="translate(-11.814 -7.384)"/></g></g><g transform="translate(2.164 25.572)"><path class="c" d="M113.7,3.933l.2-.3q-1.517.767-3.054,1.516h0c-.723.332-1.442.676-2.147,1.038h0C82.792,18.548,54.482,26.926,54.482,26.926h0l.72.188C23.421,35.355,0,63.646,0,97.284H0c0,40.1,33.274,72.6,74.321,72.6h0a75.063,75.063,0,0,0,47.13-16.48h0l-.012.038c24.223-16.769,60.705-15.792,71.761-15.05h0c.958.114,1.927.195,2.907.235h0c.25.025.387.04.387.04h0l.011-.03c.4.012.791.03,1.19.03h0c20.524,0,37.161-16.252,37.161-36.3h0A36.054,36.054,0,0,0,218.2,72.1h0c-21.112-15.208-32.907-40.659-32.907-40.659h0l-.153.217A55.828,55.828,0,0,0,134.522,0h0A56.685,56.685,0,0,0,113.7,3.933" transform="translate(0.448 0.42)"/><g class="n"><path class="t" d="M80.683,0s20.1.746,26.777,6.264c16.588,13.7,22.358,40.388,22.358,40.388s-2.885,1.442-5.048,6.491c-2.394,5.587-.967,19.046-.967,19.046L109.624,59.634c-.844-.737-6.4-.4-6.491.721-.257,3.156,1.677,13.919.721,5.77-.8-6.833.309,13.824,3.693,27.365C111.846,110.683,114,122.5,114,122.5s-38.685,12.9-52.655,7.522S28.028,126.8,28.028,126.8s5-13.286,7.144-18.66c1.695-4.237.538-16.736-2-26.872C31.733,75.5,29.57,64.683,29.57,64.683L12.261,96.416S13.7,84.155,8.655,76.222A44.707,44.707,0,0,0,0,66.125S6,38.513,10.818,26.458C17.265,10.339,29.1,6.448,38.775,4.3c0,0,5.594,8.524,20.645,7.688S80.683,0,80.683,0" transform="translate(71.341 80.701)"/></g></g><g transform="translate(72.842 105.627)"><path class="c" d="M70.45,131.335h0a26.084,26.084,0,0,1-9.109-1.31c-7.839-3.015-17.389-3.648-24.019-3.648-5.4,0-9.254.42-9.292.425,0-.014.055-.151.146-.392,3.275-8.688,5.76-15.176,7-18.268,1.6-4.006.707-16.061-2-26.871-1.428-5.71-3.585-16.48-3.606-16.588L12.261,96.416a43.37,43.37,0,0,0,.09-7.122c-.247-3.7-1.088-8.974-3.7-13.072A45.158,45.158,0,0,0,0,66.124l.029-.085C1.1,62.954,10.634,35.572,15.145,24.295,21.619,8.11,29.19,6.428,38.775,4.3a15.7,15.7,0,0,0,4.232,3.872A25.838,25.838,0,0,0,57.37,12.044c.67,0,1.36-.019,2.049-.058A27.3,27.3,0,0,0,75.7,5.68,23.245,23.245,0,0,0,80.683,0L80.7,0c.558.072,3.529.468,7.275,1.254A60.031,60.031,0,0,1,101.1,5.373c3.1,1.519,6.532,4.635,10.213,9.26a114.847,114.847,0,0,1,9.235,13.877c5.42,9.378,9.231,18.055,9.269,18.141-.029.014-2.922,1.531-5.048,6.491-2.367,5.525-.982,18.912-.967,19.047L109.625,59.633a4.331,4.331,0,0,0-2.267-.39c-1.988,0-4.168.425-4.224,1.112a38.63,38.63,0,0,0,.568,6.779,14.745,14.745,0,0,1-.071-2.356h0a5.43,5.43,0,0,1,.224,1.346,15.508,15.508,0,0,1,.251,2.986.007.007,0,0,1-.005,0,10.158,10.158,0,0,1-.4-1.979,175.027,175.027,0,0,0,3.847,26.356c4.246,16.985,6.426,28.9,6.448,29.014l-.024.009c-.712.234-7.192,2.349-15.354,4.407-5.083,1.282-9.85,2.3-14.17,3.036A85.952,85.952,0,0,1,70.45,131.335Z" transform="translate(0.662 0.646)"/><g class="u"><path class="v" d="M0,6.491S8.655,23.079,28.127,20.915,54.091,0,54.091,0Z" transform="translate(33.838 -2.465)"/></g></g><g transform="translate(80.055 0.33)"><path class="c" d="M0,0H47.832V49.585H0Z" transform="translate(0.716 0.392)"/><g class="w"><path class="x" d="M34.12,49.585,0,35.873,14.509,0,47.832,9.247Z" transform="translate(0.716 0.391)"/></g></g></g></svg>